<svg width="0" height="0" class="hidden">
    
    <symbol fill="none" xmlns="http://www.w3.org/2000/svg" viewBox="0 0 603 206" id="NSLogo">
        <path d="M507.318 110.734L506.233 109.69C502.052 106.075 496.354 103.979 491.073 103.979H467.76L453.534 103.996V103.991L429.894 103.979C422.636 103.825 416.747 106.573 413.472 109.65L412.026 111.136C408.069 115.285 406.044 122.656 406.044 128.388L406.122 156.769C406.122 161.815 407.163 167.853 410.961 171.648L412.046 172.853C416.083 177.053 421.812 179.843 430.252 179.964L452.468 179.993L452.771 205.951C461.247 205.951 461.444 206.004 468.224 205.872L468.085 180.042L491.975 180.005C498.012 180.084 503.7 177.367 506.995 173.938L507.899 172.853C512.218 168.36 514.169 163.334 514.182 154.922L514.104 130.027C514.068 120.133 512 115.644 507.317 110.733L507.318 110.734ZM452.44 119.339L452.469 164.635H429.848C424.899 164.635 420.886 160.624 420.886 155.676L420.809 129.06C420.809 123.691 425.164 119.34 430.535 119.34H452.441L452.44 119.339ZM489.621 164.635H468.003L467.76 119.34H489.32C494.856 119.34 499.343 123.825 499.343 129.357L499.42 154.842C499.42 160.25 495.034 164.636 489.622 164.636L489.621 164.635Z" fill="#FFFEFD"></path>
        <path d="M525.975 103.626V118.974H557.172V188.221H572.528V118.974H603V103.626H525.975Z" fill="#FFFEFD"></path>
        <path d="M319.993 110.89C314.581 116.299 311.54 123.636 311.54 131.286V188.638H362.275C369.305 188.638 376.047 185.847 381.017 180.879C385.886 176.012 388.622 169.412 388.622 162.529V103.979H336.687C330.425 103.979 324.42 106.464 319.993 110.89ZM373.255 119.339V160.974C373.255 167.769 367.743 173.279 360.942 173.279H326.908V131.352C326.908 124.717 332.29 119.339 338.928 119.339H373.255Z" fill="#FFFEFD"></path>
        <path d="M227.573 110.055C221.617 115.53 218.25 123.236 218.25 131.287V188.638H268.984C272.498 188.638 275.944 187.941 279.13 186.622C283.136 184.962 286.732 182.323 289.557 178.853C293.41 174.119 295.332 168.102 295.332 161.999V159.816H279.964V160.974C279.964 167.769 274.452 173.279 267.651 173.279H233.618V131.353C233.618 124.718 239 119.34 245.638 119.34H279.964V130.806C288.451 130.806 295.332 123.928 295.332 115.446V103.98H243.427C237.573 103.98 231.882 106.097 227.574 110.056L227.573 110.055Z" fill="#FFFEFD"></path>
        <path d="M357.595 0.00846296C332.786 0.015876 312.689 19.5122 312.729 43.5348L312.795 84.8626C321.28 84.8234 321.337 85.0024 327.788 84.87L327.812 56.084H372.006L372.048 84.8615C380.535 84.8223 380.576 84.9187 387.042 84.8689L387.055 -0.00106812L357.595 0.00740395V0.00846296ZM327.796 40.7475C329.949 26.13 343.401 14.8769 359.108 14.8769H372.002L371.996 40.7316L327.796 40.7475Z" fill="#FFFEFD"></path>
        <path d="M279.743 0.278517L279.723 34.8424V40.1269L233.408 40.1428L233.422 0.249924C224.948 0.249924 227.171 0.277458 218.286 0.277458L218.249 84.9102C223.898 84.9102 228.954 84.9127 233.418 84.9176L233.444 55.4793H279.722V84.9102C288.21 84.9102 288.313 84.9176 294.682 84.8192L294.684 0.250983C286.196 0.250983 286.653 0.278517 279.741 0.278517H279.743Z" fill="#FFFEFD"></path>
        <path d="M467.101 0.278517L467.081 34.8424V40.1269L420.766 40.1428L420.78 0.249924C412.306 0.249924 414.529 0.277458 405.644 0.277458L405.606 84.9102C411.256 84.9102 416.312 84.9127 420.776 84.9176L420.802 55.4793H467.08V84.9102C475.567 84.9102 475.671 84.9176 482.039 84.8192L482.042 0.250983C473.554 0.250983 474.011 0.278517 467.099 0.278517H467.101Z" fill="#FFFEFD"></path>
        <path d="M507.592 7.17054C502.179 12.58 499.138 19.9168 499.138 27.567V84.9187H549.874C556.903 84.9187 563.645 82.1282 568.616 77.1593C573.486 72.2932 576.221 65.6924 576.221 58.8099V0.259445H524.285C518.023 0.259445 512.019 2.74494 507.591 7.17054H507.592ZM560.853 15.6193V57.2542C560.853 64.0499 555.341 69.5599 548.541 69.5599H514.507V27.6327C514.507 20.998 519.888 15.6193 526.527 15.6193H560.853Z" fill="#FFFEFD"></path>
        <path d="M174.372 45.1656C173.114 44.9263 172.099 43.9181 171.855 42.66C171.425 40.4128 173.367 38.4674 175.62 38.8974C176.873 39.1367 177.887 40.1449 178.131 41.403C178.561 43.6502 176.619 45.5956 174.371 45.1656H174.372Z" fill="url(#paint0_linear_319_251)"></path>
        <path d="M161.067 23.8997C159.302 23.6127 157.881 22.1883 157.584 20.4283C157.101 17.516 159.593 15.021 162.507 15.4986C164.273 15.7898 165.698 17.2099 165.99 18.9743C166.473 21.8865 163.981 24.3816 161.067 23.8986V23.8997Z" fill="url(#paint1_linear_319_251)"></path>
        <path d="M176.16 56.0237C176.323 55.6742 176.404 55.2972 176.404 54.9149L176.394 47.9297C178.81 47.361 180.695 45.3097 181.011 42.8189C181.513 38.855 178.16 35.5128 174.199 36.0201C171.496 36.3642 169.314 38.5447 168.975 41.2463C168.573 44.4212 170.649 47.1937 173.525 47.9117L173.534 54.2848C173.534 54.6671 173.453 55.0451 173.291 55.3893L168.679 65.3196H163.26L163.231 26.6828C166.168 26.0855 168.483 23.6275 168.866 20.6252C169.454 15.9688 165.512 12.0377 160.853 12.6308C157.677 13.0375 155.118 15.6045 154.716 18.7794C154.233 22.6183 156.826 25.9563 160.36 26.6775L160.394 65.3186H147.75V40.7718H147.726V40.7189H89.4829V65.3376H49.2935V0.452194H188.092L188.098 65.3186H171.842L176.162 56.0237H176.16Z" fill="url(#paint2_linear_319_251)"></path>
        <path d="M97.6483 161.755C97.4088 163.012 96.3948 164.027 95.137 164.265C92.8886 164.695 90.9421 162.749 91.3723 160.502C91.616 159.249 92.63 158.236 93.8835 157.997C96.132 157.567 98.0785 159.508 97.6483 161.755Z" fill="url(#paint3_linear_319_251)"></path>
        <path d="M71.81 175.028C71.5186 176.792 70.0977 178.212 68.3324 178.503C65.4185 178.986 62.9263 176.49 63.4053 173.579C63.6966 171.815 65.1229 170.394 66.8882 170.103C69.8021 169.62 72.2942 172.116 71.811 175.028H71.81Z" fill="url(#paint4_linear_319_251)"></path>
        <path d="M188.101 188.454H49.2925V123.553H89.482V148.091H147.725L147.749 123.54H162.494L162.465 164.916L122.85 164.892C122.568 164.892 122.29 164.829 122.032 164.71L111.862 159.981C111.512 159.818 111.135 159.738 110.752 159.738L100.415 159.732C99.8459 157.318 97.7977 155.434 95.3013 155.118C91.3405 154.611 87.9911 157.959 88.4933 161.922C88.8377 164.619 91.0194 166.799 93.7225 167.143C96.8938 167.55 99.6732 165.48 100.392 162.601L110.118 162.607C110.5 162.607 110.878 162.688 111.227 162.85L121.402 167.579C121.656 167.698 121.933 167.761 122.215 167.761L165.332 167.785V167.776L165.361 123.54H170.489L170.455 172.901L74.602 172.873C74.0044 169.932 71.5504 167.618 68.5454 167.235C63.8863 166.642 59.9436 170.578 60.5369 175.234C60.9385 178.409 63.508 180.972 66.6794 181.373C70.5205 181.861 73.8645 179.274 74.5914 175.741L173.311 175.77V175.765H173.32L173.359 123.54H188.098L188.102 188.454H188.101Z" fill="url(#paint5_linear_319_251)"></path>
        <path d="M13.3615 71.5011C11.5963 71.2141 10.1711 69.7897 9.87865 68.0254C9.39548 65.1184 11.8876 62.6223 14.8015 63.101C16.5668 63.3922 17.992 64.8124 18.2844 66.5767C18.7676 69.489 16.2754 71.984 13.3615 71.5011Z" fill="url(#paint6_linear_319_251)"></path>
        <path d="M26.6648 97.3091C25.4071 97.0698 24.392 96.0616 24.1483 94.8035C23.7181 92.5563 25.6603 90.6109 27.9088 91.0408C29.1665 91.2802 30.1816 92.2884 30.4253 93.5465C30.8555 95.7937 28.9133 97.7391 26.6648 97.3091Z" fill="url(#paint7_linear_319_251)"></path>
        <path d="M138.774 49.8083V139.049H98.4324V114.607H40.3421V188.438H23.5888L23.5506 122.501C23.5506 122.219 23.6078 121.942 23.7276 121.683L28.4544 111.514C28.6166 111.164 28.6981 110.787 28.6981 110.405L28.6886 100.073C31.1045 99.5044 32.9895 97.4531 33.3053 94.9623C33.8033 90.9985 30.4539 87.6562 26.4931 88.1635C23.7901 88.5077 21.6084 90.6882 21.2693 93.3897C20.8677 96.5646 22.9435 99.3371 25.8182 100.055L25.8277 109.776C25.8277 110.158 25.7419 110.536 25.584 110.88L20.8571 121.054C20.7374 121.313 20.6749 121.59 20.6749 121.872L20.7183 188.44H15.5952L15.5231 74.2841C18.4603 73.6869 20.7755 71.2289 21.1538 68.2266C21.7472 63.5702 17.8055 59.6391 13.1454 60.2322C9.96869 60.6388 7.40977 63.2059 7.00818 66.3808C6.5197 70.2197 9.11784 73.5577 12.6527 74.2789L12.7247 188.439H0V0.452194H40.3421V74.2831H98.4324V49.8083H138.774Z" fill="url(#paint8_linear_319_251)"></path>
        <defs>
        <linearGradient id="paint0_linear_319_251" x1="171.795" y1="42.032" x2="178.191" y2="42.032" gradientUnits="userSpaceOnUse">
            <stop stop-color="#FFD488"></stop>
            <stop offset="0.47" stop-color="#FFC678"></stop>
            <stop offset="1" stop-color="#FFBC6C"></stop>
        </linearGradient>
        <linearGradient id="paint1_linear_319_251" x1="157.524" y1="19.6997" x2="166.051" y2="19.6997" gradientUnits="userSpaceOnUse">
            <stop stop-color="#FFD488"></stop>
            <stop offset="0.47" stop-color="#FFC678"></stop>
            <stop offset="1" stop-color="#FFBC6C"></stop>
        </linearGradient>
        <linearGradient id="paint2_linear_319_251" x1="49.2924" y1="32.8949" x2="188.095" y2="32.8949" gradientUnits="userSpaceOnUse">
            <stop stop-color="#FFD488"></stop>
            <stop offset="0.47" stop-color="#FFC678"></stop>
            <stop offset="1" stop-color="#FFBC6C"></stop>
        </linearGradient>
        <linearGradient id="paint3_linear_319_251" x1="91.3108" y1="161.131" x2="97.7076" y2="161.131" gradientUnits="userSpaceOnUse">
            <stop stop-color="#FFD488"></stop>
            <stop offset="0.47" stop-color="#FFC678"></stop>
            <stop offset="1" stop-color="#FFBC6C"></stop>
        </linearGradient>
        <linearGradient id="paint4_linear_319_251" x1="63.3459" y1="174.303" x2="71.8704" y2="174.303" gradientUnits="userSpaceOnUse">
            <stop stop-color="#FFD488"></stop>
            <stop offset="0.47" stop-color="#FFC678"></stop>
            <stop offset="1" stop-color="#FFBC6C"></stop>
        </linearGradient>
        <linearGradient id="paint5_linear_319_251" x1="49.2925" y1="155.996" x2="188.101" y2="155.996" gradientUnits="userSpaceOnUse">
            <stop stop-color="#FFD488"></stop>
            <stop offset="0.47" stop-color="#FFC678"></stop>
            <stop offset="1" stop-color="#FFBC6C"></stop>
        </linearGradient>
        <linearGradient id="paint6_linear_319_251" x1="9.81825" y1="67.301" x2="18.3438" y2="67.301" gradientUnits="userSpaceOnUse">
            <stop stop-color="#FFD488"></stop>
            <stop offset="0.47" stop-color="#FFC678"></stop>
            <stop offset="1" stop-color="#FFBC6C"></stop>
        </linearGradient>
        <linearGradient id="paint7_linear_319_251" x1="24.0889" y1="94.1755" x2="30.4857" y2="94.1755" gradientUnits="userSpaceOnUse">
            <stop stop-color="#FFD488"></stop>
            <stop offset="0.47" stop-color="#FFC678"></stop>
            <stop offset="1" stop-color="#FFBC6C"></stop>
        </linearGradient>
        <linearGradient id="paint8_linear_319_251" x1="0" y1="94.4456" x2="138.774" y2="94.4456" gradientUnits="userSpaceOnUse">
            <stop stop-color="#FFD488"></stop>
            <stop offset="0.47" stop-color="#FFC678"></stop>
            <stop offset="1" stop-color="#FFBC6C"></stop>
        </linearGradient>
        </defs>
    </symbol>

    <symbol xmlns="http://www.w3.org/2000/svg" viewBox="0 0 22 22" id="corner">
        <path d="M0 0V22H22C11 22 0 11.2 0 0Z"></path>
    </symbol>

    <symbol xmlns="http://www.w3.org/2000/svg" viewBox="0 0 24 24" id="close">
        <path fill-rule="evenodd" clip-rule="evenodd" d="M5.29289 5.29289C5.68342 4.90237 6.31658 4.90237 6.70711 5.29289L12 10.5858L17.2929 5.29289C17.6834 4.90237 18.3166 4.90237 18.7071 5.29289C19.0976 5.68342 19.0976 6.31658 18.7071 6.70711L13.4142 12L18.7071 17.2929C19.0976 17.6834 19.0976 18.3166 18.7071 18.7071C18.3166 19.0976 17.6834 19.0976 17.2929 18.7071L12 13.4142L6.70711 18.7071C6.31658 19.0976 5.68342 19.0976 5.29289 18.7071C4.90237 18.3166 4.90237 17.6834 5.29289 17.2929L10.5858 12L5.29289 6.70711C4.90237 6.31658 4.90237 5.68342 5.29289 5.29289Z"></path>
    </symbol>

    <symbol xmlns="http://www.w3.org/2000/svg" viewBox="0 0 24 24" id="menu">
        <path fill-rule="evenodd" clip-rule="evenodd" d="M5.3783 2C5.3905 2 5.40273 2 5.415 2L7.62171 2C8.01734 1.99998 8.37336 1.99996 8.66942 2.02454C8.98657 2.05088 9.32336 2.11052 9.65244 2.28147C10.109 2.51866 10.4813 2.89096 10.7185 3.34757C10.8895 3.67665 10.9491 4.01343 10.9755 4.33059C11 4.62664 11 4.98265 11 5.37828V7.62172C11 8.01735 11 8.37337 10.9755 8.66942C10.9491 8.98657 10.8895 9.32336 10.7185 9.65244C10.4813 10.109 10.109 10.4813 9.65244 10.7185C9.32336 10.8895 8.98657 10.9491 8.66942 10.9755C8.37337 11 8.01735 11 7.62172 11H5.37828C4.98265 11 4.62664 11 4.33059 10.9755C4.01343 10.9491 3.67665 10.8895 3.34757 10.7185C2.89096 10.4813 2.51866 10.109 2.28147 9.65244C2.11052 9.32336 2.05088 8.98657 2.02454 8.66942C1.99996 8.37336 1.99998 8.01734 2 7.62171L2 5.415C2 5.40273 2 5.3905 2 5.3783C1.99998 4.98266 1.99996 4.62664 2.02454 4.33059C2.05088 4.01343 2.11052 3.67665 2.28147 3.34757C2.51866 2.89096 2.89096 2.51866 3.34757 2.28147C3.67665 2.11052 4.01343 2.05088 4.33059 2.02454C4.62664 1.99996 4.98266 1.99998 5.3783 2ZM4.27752 4.05297C4.27226 4.05488 4.27001 4.05604 4.26952 4.0563C4.17819 4.10373 4.10373 4.17819 4.0563 4.26952C4.05604 4.27001 4.05488 4.27226 4.05297 4.27752C4.05098 4.28299 4.04767 4.29312 4.04372 4.30961C4.03541 4.34427 4.02554 4.40145 4.01768 4.49611C4.00081 4.69932 4 4.9711 4 5.415V7.585C4 8.02891 4.00081 8.30068 4.01768 8.5039C4.02554 8.59855 4.03541 8.65574 4.04372 8.6904C4.04767 8.70688 4.05098 8.71701 4.05297 8.72249C4.05488 8.72775 4.05604 8.72999 4.0563 8.73049C4.10373 8.82181 4.17819 8.89627 4.26952 8.94371C4.27001 8.94397 4.27226 8.94513 4.27752 8.94704C4.28299 8.94903 4.29312 8.95234 4.30961 8.95629C4.34427 8.96459 4.40145 8.97446 4.49611 8.98232C4.69932 8.9992 4.9711 9 5.415 9H7.585C8.02891 9 8.30068 8.9992 8.5039 8.98232C8.59855 8.97446 8.65574 8.96459 8.6904 8.95629C8.70688 8.95234 8.71701 8.94903 8.72249 8.94704C8.72775 8.94513 8.72999 8.94397 8.73049 8.94371C8.82181 8.89627 8.89627 8.82181 8.94371 8.73049C8.94397 8.72999 8.94513 8.72775 8.94704 8.72249C8.94903 8.71701 8.95234 8.70688 8.95629 8.6904C8.96459 8.65574 8.97446 8.59855 8.98232 8.5039C8.9992 8.30068 9 8.02891 9 7.585V5.415C9 4.9711 8.9992 4.69932 8.98232 4.49611C8.97446 4.40145 8.96459 4.34427 8.95629 4.30961C8.95234 4.29312 8.94903 4.28299 8.94704 4.27752C8.94513 4.27226 8.94397 4.27001 8.94371 4.26952C8.89627 4.17819 8.82181 4.10373 8.73049 4.0563C8.72999 4.05604 8.72775 4.05488 8.72249 4.05297C8.71701 4.05098 8.70688 4.04767 8.6904 4.04372C8.65574 4.03541 8.59855 4.02554 8.5039 4.01768C8.30068 4.00081 8.02891 4 7.585 4H5.415C4.9711 4 4.69932 4.00081 4.49611 4.01768C4.40145 4.02554 4.34427 4.03541 4.30961 4.04372C4.29312 4.04767 4.28299 4.05098 4.27752 4.05297ZM16.3783 2H18.6217C19.0173 1.99998 19.3734 1.99996 19.6694 2.02454C19.9866 2.05088 20.3234 2.11052 20.6524 2.28147C21.109 2.51866 21.4813 2.89096 21.7185 3.34757C21.8895 3.67665 21.9491 4.01343 21.9755 4.33059C22 4.62665 22 4.98267 22 5.37832V7.62168C22 8.01733 22 8.37336 21.9755 8.66942C21.9491 8.98657 21.8895 9.32336 21.7185 9.65244C21.4813 10.109 21.109 10.4813 20.6524 10.7185C20.3234 10.8895 19.9866 10.9491 19.6694 10.9755C19.3734 11 19.0174 11 18.6217 11H16.3783C15.9827 11 15.6266 11 15.3306 10.9755C15.0134 10.9491 14.6766 10.8895 14.3476 10.7185C13.891 10.4813 13.5187 10.109 13.2815 9.65244C13.1105 9.32336 13.0509 8.98657 13.0245 8.66942C13 8.37337 13 8.01735 13 7.62172V5.37828C13 4.98265 13 4.62664 13.0245 4.33059C13.0509 4.01344 13.1105 3.67665 13.2815 3.34757C13.5187 2.89096 13.891 2.51866 14.3476 2.28147C14.6766 2.11052 15.0134 2.05088 15.3306 2.02454C15.6266 1.99996 15.9827 1.99998 16.3783 2ZM15.2775 4.05297C15.2723 4.05488 15.27 4.05604 15.2695 4.0563C15.1782 4.10373 15.1037 4.17819 15.0563 4.26952C15.056 4.27001 15.0549 4.27226 15.053 4.27752C15.051 4.28299 15.0477 4.29312 15.0437 4.30961C15.0354 4.34427 15.0255 4.40145 15.0177 4.49611C15.0008 4.69932 15 4.9711 15 5.415V7.585C15 8.02891 15.0008 8.30068 15.0177 8.5039C15.0255 8.59855 15.0354 8.65574 15.0437 8.6904C15.0477 8.70688 15.051 8.71701 15.053 8.72249C15.0549 8.72775 15.056 8.72999 15.0563 8.73049C15.1037 8.82181 15.1782 8.89627 15.2695 8.94371C15.27 8.94397 15.2723 8.94513 15.2775 8.94704C15.283 8.94903 15.2931 8.95234 15.3096 8.95629C15.3443 8.96459 15.4015 8.97446 15.4961 8.98232C15.6993 8.9992 15.9711 9 16.415 9H18.585C19.0289 9 19.3007 8.9992 19.5039 8.98232C19.5986 8.97446 19.6557 8.96459 19.6904 8.95629C19.7069 8.95234 19.717 8.94903 19.7225 8.94704C19.7277 8.94513 19.73 8.94397 19.7305 8.94371C19.8218 8.89627 19.8963 8.82181 19.9437 8.73049C19.944 8.72999 19.9451 8.72775 19.947 8.72249C19.949 8.71701 19.9523 8.70688 19.9563 8.6904C19.9646 8.65573 19.9745 8.59855 19.9823 8.5039C19.9992 8.30068 20 8.02891 20 7.585V5.415C20 4.9711 19.9992 4.69932 19.9823 4.49611C19.9745 4.40145 19.9646 4.34427 19.9563 4.30961C19.9523 4.29312 19.949 4.28299 19.947 4.27752C19.9451 4.27226 19.944 4.27001 19.9437 4.26952C19.8963 4.17819 19.8218 4.10373 19.7305 4.0563C19.73 4.05604 19.7277 4.05488 19.7225 4.05297C19.717 4.05098 19.7069 4.04767 19.6904 4.04372C19.6557 4.03541 19.5986 4.02554 19.5039 4.01768C19.3007 4.00081 19.0289 4 18.585 4H16.415C15.9711 4 15.6993 4.00081 15.4961 4.01768C15.4015 4.02554 15.3443 4.03541 15.3096 4.04372C15.2931 4.04767 15.283 4.05098 15.2775 4.05297ZM5.37828 13H7.62172C8.01735 13 8.37337 13 8.66942 13.0245C8.98657 13.0509 9.32336 13.1105 9.65244 13.2815C10.109 13.5187 10.4813 13.891 10.7185 14.3476C10.8895 14.6766 10.9491 15.0134 10.9755 15.3306C11 15.6266 11 15.9827 11 16.3783V18.6217C11 19.0174 11 19.3734 10.9755 19.6694C10.9491 19.9866 10.8895 20.3234 10.7185 20.6524C10.4813 21.109 10.109 21.4813 9.65244 21.7185C9.32336 21.8895 8.98657 21.9491 8.66942 21.9755C8.37336 22 8.01733 22 7.62168 22H5.37832C4.98267 22 4.62665 22 4.33059 21.9755C4.01343 21.9491 3.67665 21.8895 3.34757 21.7185C2.89096 21.4813 2.51866 21.109 2.28147 20.6524C2.11052 20.3234 2.05088 19.9866 2.02454 19.6694C1.99996 19.3734 1.99998 19.0173 2 18.6217V16.3783C1.99998 15.9827 1.99996 15.6266 2.02454 15.3306C2.05088 15.0134 2.11052 14.6766 2.28147 14.3476C2.51866 13.891 2.89096 13.5187 3.34757 13.2815C3.67665 13.1105 4.01344 13.0509 4.33059 13.0245C4.62664 13 4.98265 13 5.37828 13ZM4.27752 15.053C4.27226 15.0549 4.27001 15.056 4.26952 15.0563C4.17819 15.1037 4.10373 15.1782 4.0563 15.2695C4.05604 15.27 4.05488 15.2723 4.05297 15.2775C4.05098 15.283 4.04767 15.2931 4.04372 15.3096C4.03541 15.3443 4.02554 15.4015 4.01768 15.4961C4.00081 15.6993 4 15.9711 4 16.415V18.585C4 19.0289 4.00081 19.3007 4.01768 19.5039C4.02554 19.5986 4.03541 19.6557 4.04372 19.6904C4.04767 19.7069 4.05098 19.717 4.05297 19.7225C4.05488 19.7277 4.05604 19.73 4.0563 19.7305C4.10373 19.8218 4.17819 19.8963 4.26952 19.9437C4.27001 19.944 4.27226 19.9451 4.27752 19.947C4.28299 19.949 4.29312 19.9523 4.30961 19.9563C4.34427 19.9646 4.40145 19.9745 4.49611 19.9823C4.69932 19.9992 4.9711 20 5.415 20H7.585C8.02891 20 8.30068 19.9992 8.5039 19.9823C8.59855 19.9745 8.65573 19.9646 8.6904 19.9563C8.70688 19.9523 8.71701 19.949 8.72249 19.947C8.72775 19.9451 8.72999 19.944 8.73049 19.9437C8.82181 19.8963 8.89627 19.8218 8.94371 19.7305C8.94397 19.73 8.94513 19.7277 8.94704 19.7225C8.94903 19.717 8.95234 19.7069 8.95629 19.6904C8.96459 19.6557 8.97446 19.5986 8.98232 19.5039C8.9992 19.3007 9 19.0289 9 18.585V16.415C9 15.9711 8.9992 15.6993 8.98232 15.4961C8.97446 15.4015 8.96459 15.3443 8.95629 15.3096C8.95234 15.2931 8.94903 15.283 8.94704 15.2775C8.94513 15.2723 8.94397 15.27 8.94371 15.2695C8.89627 15.1782 8.82181 15.1037 8.73049 15.0563C8.73026 15.0562 8.72968 15.0559 8.72861 15.0554C8.72733 15.0548 8.72536 15.054 8.72249 15.053C8.71701 15.051 8.70688 15.0477 8.6904 15.0437C8.65574 15.0354 8.59855 15.0255 8.5039 15.0177C8.30068 15.0008 8.02891 15 7.585 15H5.415C4.9711 15 4.69932 15.0008 4.49611 15.0177C4.40145 15.0255 4.34427 15.0354 4.30961 15.0437C4.29312 15.0477 4.28299 15.051 4.27752 15.053ZM16.3783 13H18.6217C19.0174 13 19.3734 13 19.6694 13.0245C19.9866 13.0509 20.3234 13.1105 20.6524 13.2815C21.109 13.5187 21.4813 13.891 21.7185 14.3476C21.8895 14.6766 21.9491 15.0134 21.9755 15.3306C22 15.6266 22 15.9827 22 16.3783V18.6217C22 19.0173 22 19.3734 21.9755 19.6694C21.9491 19.9866 21.8895 20.3234 21.7185 20.6524C21.4813 21.109 21.109 21.4813 20.6524 21.7185C20.3234 21.8895 19.9866 21.9491 19.6694 21.9755C19.3734 22 19.0173 22 18.6217 22H16.3783C15.9827 22 15.6266 22 15.3306 21.9755C15.0134 21.9491 14.6766 21.8895 14.3476 21.7185C13.891 21.4813 13.5187 21.109 13.2815 20.6524C13.1105 20.3234 13.0509 19.9866 13.0245 19.6694C13 19.3734 13 19.0174 13 18.6217V16.3783C13 15.9827 13 15.6266 13.0245 15.3306C13.0509 15.0134 13.1105 14.6766 13.2815 14.3476C13.5187 13.891 13.891 13.5187 14.3476 13.2815C14.6766 13.1105 15.0134 13.0509 15.3306 13.0245C15.6266 13 15.9827 13 16.3783 13ZM15.2775 15.053C15.2723 15.0549 15.27 15.056 15.2695 15.0563C15.1782 15.1037 15.1037 15.1782 15.0563 15.2695C15.056 15.27 15.0549 15.2723 15.053 15.2775C15.051 15.283 15.0477 15.2931 15.0437 15.3096C15.0354 15.3443 15.0255 15.4015 15.0177 15.4961C15.0008 15.6993 15 15.9711 15 16.415V18.585C15 19.0289 15.0008 19.3007 15.0177 19.5039C15.0255 19.5986 15.0354 19.6557 15.0437 19.6904C15.0477 19.7069 15.051 19.717 15.053 19.7225C15.0549 19.7277 15.056 19.73 15.0563 19.7305C15.1037 19.8218 15.1782 19.8963 15.2695 19.9437C15.27 19.944 15.2723 19.9451 15.2775 19.947C15.283 19.949 15.2931 19.9523 15.3096 19.9563C15.3443 19.9646 15.4015 19.9745 15.4961 19.9823C15.6993 19.9992 15.9711 20 16.415 20H18.585C19.0289 20 19.3007 19.9992 19.5039 19.9823C19.5986 19.9745 19.6557 19.9646 19.6904 19.9563C19.7069 19.9523 19.717 19.949 19.7225 19.947C19.7277 19.9451 19.73 19.944 19.7305 19.9437C19.8218 19.8963 19.8963 19.8218 19.9437 19.7305C19.944 19.73 19.9451 19.7277 19.947 19.7225C19.949 19.717 19.9523 19.7069 19.9563 19.6904C19.9646 19.6557 19.9745 19.5986 19.9823 19.5039C19.9992 19.3007 20 19.0289 20 18.585V16.415C20 15.9711 19.9992 15.6993 19.9823 15.4961C19.9745 15.4015 19.9646 15.3443 19.9563 15.3096C19.9523 15.2931 19.949 15.283 19.947 15.2775C19.9463 15.2756 19.9458 15.2741 19.9453 15.2729C19.9444 15.2709 19.9439 15.2698 19.9437 15.2695C19.8963 15.1782 19.8218 15.1037 19.7305 15.0563C19.73 15.056 19.7277 15.0549 19.7225 15.053C19.717 15.051 19.7069 15.0477 19.6904 15.0437C19.6557 15.0354 19.5986 15.0255 19.5039 15.0177C19.3007 15.0008 19.0289 15 18.585 15H16.415C15.9711 15 15.6993 15.0008 15.4961 15.0177C15.4015 15.0255 15.3443 15.0354 15.3096 15.0437C15.2931 15.0477 15.283 15.051 15.2775 15.053Z"></path>
    </symbol>

</svg>