<svg width="376" height="329" viewBox="0 0 376 329" fill="none" xmlns="http://www.w3.org/2000/svg">
<path d="M307.484 2.19602C338.005 4.50122 362.86 26.048 370.749 55.768C382.314 99.329 362.507 134.087 319.518 145.535C305.784 149.193 293.092 149.7 281.764 147.356C275.425 152.168 270.927 155.394 262.517 161C262.341 151.479 262.271 147.353 262.36 139.74C247.312 130.563 236.258 114.649 230.54 93.11C220.483 55.23 240.823 15.6518 282.125 4.65072C290.381 2.41212 298.953 1.58232 307.484 2.19602Z" fill="white"/>
<path d="M338.313 138.324C343.587 135.645 348.518 132.339 353 128.478C349.164 126.3 345.086 124.419 341.173 122.644C336.805 120.86 332.756 119.105 328.485 117.263C328.009 117.056 327.489 116.969 326.972 117.01C326.454 117.05 325.954 117.216 325.516 117.494C320.146 120.928 308.818 124.139 300.006 124.139C291.319 124.139 280.194 121.034 274.727 117.649C274.218 117.326 273.638 117.131 273.036 117.083C272.435 117.034 271.831 117.132 271.276 117.369C267.092 119.173 263.12 120.889 258.839 122.644C254.828 124.459 251.79 126.05 248 127.949C252.035 132.437 256.699 136.316 261.847 139.465C261.757 147.181 261.828 151.356 262.006 161C270.54 155.321 275.097 152.054 281.526 147.18C293.012 149.554 305.887 149.041 319.816 145.336C326.215 143.667 332.416 141.316 338.313 138.324Z" fill="#FFDA71"/>
<path d="M67.7967 280C92.5951 280.082 120.755 280.164 139 280.225C136.79 293.205 134.436 306.977 131.856 322.001L131.233 325C122.734 320.213 94.162 303.312 79.7681 294.323C79.7681 294.323 72.6515 289.59 67 285.776C67.1208 284.506 67.3803 282.464 67.7967 280Z" fill="white"/>
<path d="M267.632 65.761C267.123 65.322 266.526 64.998 265.881 64.81C265.235 64.622 264.556 64.574 263.891 64.672C263.238 64.764 262.614 65.002 262.065 65.366C261.516 65.731 261.056 66.213 260.719 66.778C260.328 67.557 260.105 68.408 260.065 69.278C259.78 72.683 260.439 76.1 261.972 79.157C262.695 80.702 263.744 82.074 265.047 83.179C266.106 84.034 267.368 84.601 268.712 84.825C268.712 84.825 268.94 84.86 269.34 84.927C269.641 86.045 269.979 86.988 270.144 87.489C271.23 90.428 277.399 100.726 285.107 104.197C285.017 106.037 284.807 107.87 284.476 109.683C284.103 111.813 284.221 113.717 281.241 114.792C281.008 114.87 268.39 120.86 273.552 118.376C273.664 118.429 273.773 118.489 273.878 118.555C279.327 121.916 290.419 125 299.078 125C307.863 125 319.156 121.811 324.509 118.402C324.856 118.18 325.245 118.03 325.651 117.959C325 117.666 324.578 117.474 324.578 117.474C321.848 116.229 318.727 114.777 318.619 114.736C315.705 113.69 315.825 111.826 315.448 109.733C315.048 107.555 314.829 105.348 314.792 103.134C317.546 101.441 319.995 99.299 322.037 96.797C324.892 93.306 326.969 89.251 328.131 84.899C329.892 84.903 331.6 84.293 332.958 83.175C334.262 82.07 335.311 80.698 336.034 79.153C337.563 76.097 338.221 72.681 337.935 69.278C337.895 68.408 337.673 67.555 337.281 66.777C336.944 66.211 336.484 65.729 335.936 65.364C335.387 65 334.763 64.762 334.11 64.67C333.444 64.572 332.765 64.62 332.12 64.808C331.474 64.996 330.877 65.32 330.369 65.759C330.369 65.759 328.478 38 299.431 38C270.384 38 267.632 65.761 267.632 65.761Z" fill="white"/>
<path d="M273.647 57.753C275.162 55.658 276.893 53.737 278.812 52.023C281.012 50.083 283.541 48.571 286.275 47.563L292.792 45.891C296.72 48.353 303.118 52.486 303.668 52.26C304.044 52.103 305.663 47.976 305.707 47.461C313.306 53.551 320.834 58.558 329.479 67C329.98 66.471 330.597 66.072 331.28 65.835C331.962 65.599 332.691 65.533 333.403 65.643C333.766 65.698 334.119 65.8 334.456 65.947L334.473 65.874C336.822 55.904 336.232 47.466 334.253 41.537C332.497 36.274 328.585 30.3 323.63 27.491C325.183 26.563 326.985 25.482 326.985 25.482C319.277 17.5659 309.139 15.7512 300.337 16.0261C290.941 16.3144 284.282 19.565 279.877 25.722L274.708 29.516C271.129 31.201 266.086 37.247 264.065 43.018C261.189 51.225 261.522 59.877 263.801 65.844C264.06 65.752 264.328 65.684 264.599 65.643C265.287 65.537 265.988 65.596 266.65 65.814C267.311 66.032 267.914 66.403 268.411 66.898C269.819 63.661 271.575 60.594 273.647 57.753Z" fill="#7A7473"/>
<path d="M288 105.216C287.835 107.677 287.496 110.125 286.987 112.546C286.801 113.577 286.327 114.547 285.609 115.364C284.892 116.18 283.955 116.814 282.89 117.206C282.627 117.307 281.482 117.832 282.688 117.272C282.635 117.296 282.579 117.316 282.525 117.339L281.864 117.615C281.161 117.915 280.457 118.216 279.754 118.519C278.052 119.251 276.35 119.983 274.649 120.715C274.089 120.998 273.43 121.074 272.81 120.926C272.19 120.778 271.657 120.418 271.322 119.922C271.004 119.414 270.917 118.813 271.08 118.247C271.243 117.681 271.643 117.196 272.195 116.895C274.867 115.748 277.519 114.548 280.218 113.454C280.426 113.37 280.637 113.292 280.847 113.214C281.132 113.115 281.161 113.106 280.935 113.184C281.065 113.127 281.195 113.066 281.321 113C281.446 112.934 281.912 112.606 281.474 112.945C281.652 112.807 281.798 112.648 281.967 112.502C281.581 112.835 281.844 112.644 281.954 112.47C282.006 112.387 282.055 112.302 282.097 112.217C281.958 112.529 281.934 112.573 282.026 112.349C282.127 112.021 282.229 111.704 282.294 111.365C282.728 109.334 283.008 107.278 283.133 105.212C283.133 104.625 283.39 104.063 283.846 103.648C284.302 103.233 284.92 103 285.565 103C286.21 103 286.829 103.233 287.285 103.648C287.741 104.063 287.997 104.625 287.997 105.212L288 105.216Z" fill="#211715"/>
<path d="M266.495 67.875C266.28 67.697 266.035 67.567 265.773 67.491C265.511 67.415 265.237 67.396 264.968 67.434C264.7 67.472 264.44 67.567 264.206 67.713C263.971 67.859 263.765 68.053 263.601 68.285C263.257 69.054 263.108 69.907 263.168 70.758C263.134 71.789 263.198 72.822 263.361 73.839C263.983 77.497 265.69 81.902 269.48 82.631C270.008 82.793 270.456 83.171 270.727 83.684C270.998 84.197 271.071 84.804 270.929 85.374C270.772 85.937 270.419 86.413 269.944 86.703C269.468 86.993 268.906 87.074 268.376 86.931C262.383 85.776 259.52 78.523 259.069 72.689C258.833 69.647 259.098 66.231 261.542 64.27C262.709 63.372 264.125 62.928 265.558 63.01C266.991 63.092 268.355 63.696 269.426 64.722C269.811 65.142 270.027 65.708 270.027 66.298C270.027 66.888 269.811 67.455 269.426 67.875C269.031 68.281 268.505 68.508 267.958 68.508C267.411 68.508 266.885 68.281 266.49 67.875H266.495Z" fill="#211715"/>
<path d="M272.511 82.199C272.629 83.785 272.964 85.348 273.506 86.841C273.6 87.119 273.702 87.394 273.782 87.675C273.825 87.828 274.006 88.2 273.731 87.575C273.877 87.905 274.026 88.231 274.186 88.552C275.161 90.472 276.29 92.308 277.561 94.041C280.471 98.085 284.459 102.362 289.389 103.534C292.211 104.203 291.017 108.601 288.191 107.931C282.115 106.488 277.407 101.471 273.833 96.571C270.751 92.349 268.217 87.563 268.002 82.199C267.885 79.265 272.391 79.269 272.508 82.199H272.511Z" fill="#211715"/>
<path d="M328.706 64.72C329.866 63.695 331.344 63.092 332.896 63.01C334.448 62.928 335.982 63.372 337.246 64.269C339.897 66.22 340.18 69.657 339.925 72.689C339.434 78.524 336.336 85.779 329.843 86.933C329.269 87.074 328.662 86.991 328.147 86.701C327.633 86.411 327.249 85.937 327.077 85.376C326.923 84.806 327.002 84.199 327.296 83.686C327.59 83.173 328.075 82.795 328.648 82.633C332.754 81.904 334.601 77.498 335.275 73.839C335.442 72.88 335.513 71.907 335.488 70.934C335.553 70.072 335.419 69.207 335.095 68.405C334.928 68.151 334.709 67.934 334.453 67.769C334.197 67.603 333.91 67.492 333.608 67.442C333.306 67.392 332.998 67.405 332.701 67.479C332.405 67.553 332.127 67.688 331.886 67.874C331.457 68.278 330.888 68.502 330.296 68.502C329.704 68.502 329.135 68.278 328.706 67.874C328.289 67.454 328.055 66.887 328.055 66.297C328.055 65.707 328.289 65.141 328.706 64.72Z" fill="#211715"/>
<path d="M330.941 82.845C328.347 94.834 319.451 106.612 306.312 108C305.7 107.996 305.115 107.755 304.682 107.329C304.249 106.904 304.004 106.328 304 105.726C304.013 105.128 304.261 104.557 304.692 104.133C305.123 103.71 305.703 103.466 306.312 103.453C311.575 102.901 316.054 99.775 319.502 95.986C323.071 91.888 325.478 86.937 326.482 81.633C327.101 78.773 331.56 79.983 330.941 82.842V82.845Z" fill="#211715"/>
<path d="M301.399 75.748C301.599 76.739 301.782 77.73 301.91 78.741C302.026 79.375 302.03 80.034 301.922 80.67C301.843 81.069 301.697 81.442 301.496 81.762C301.295 82.083 301.043 82.343 300.758 82.526C300.305 82.841 299.799 83.003 299.286 83C298.967 82.982 298.663 82.881 298.35 82.826C297.897 82.638 297.509 82.253 297.251 81.736C297.13 81.467 297.05 81.168 297.017 80.859C296.984 80.549 296.999 80.234 297.06 79.932C297.121 79.63 297.228 79.346 297.374 79.097C297.52 78.848 297.702 78.639 297.911 78.481L298.35 78.242C298.67 78.129 299.007 78.129 299.327 78.242C299.441 78.261 299.557 78.298 299.668 78.318L299.179 78.234C299.281 78.249 299.384 78.249 299.485 78.234L298.997 78.319C299.108 78.296 299.216 78.255 299.319 78.197L298.88 78.437C298.946 78.399 299.01 78.355 299.071 78.306L298.699 78.678C298.727 78.648 298.753 78.615 298.776 78.579L298.488 79.06C298.508 79.021 298.526 78.979 298.54 78.935L298.355 79.503C298.372 79.439 298.385 79.373 298.392 79.305L298.327 79.937C298.336 79.794 298.333 79.649 298.318 79.506L298.383 80.139C298.251 79.085 298.075 78.041 297.855 77.013C297.732 76.394 297.798 75.737 298.04 75.18C298.286 74.636 298.688 74.239 299.159 74.079C299.63 73.918 300.131 74.006 300.552 74.323C300.961 74.643 301.262 75.15 301.395 75.744L301.399 75.748Z" fill="#211715"/>
<path d="M315.803 69.105C316.32 70.505 315.983 73.726 312.799 74C308.592 73.979 308.368 70.084 309.784 68.254C310.943 66.752 314.354 66.131 315.803 69.105Z" fill="#211715"/>
<path d="M289.803 69.105C290.32 70.505 289.983 73.726 286.799 74C282.592 73.979 282.368 70.084 283.784 68.254C284.943 66.752 288.354 66.131 289.803 69.105Z" fill="#211715"/>
<path d="M284.141 69.1049C283.771 70.5049 284.012 73.7259 286.286 73.9999C289.292 73.9789 290.512 70.9359 289.5 69.1049C288.672 67.6039 285.176 66.1309 284.141 69.1049Z" fill="#211715"/>
<path d="M296.832 97.709C296.046 97.209 295.31 96.644 294.631 96.021C293.981 95.361 293.375 94.663 292.817 93.932C291.69 92.464 290.249 90.18 291.458 88.425C291.794 87.962 292.253 87.59 292.79 87.346C293.326 87.101 293.921 86.993 294.515 87.032C295.113 87.032 295.711 87.03 296.309 87.026C297.697 87.023 299.085 87.018 300.472 87.013C301.871 87.009 303.27 87.004 304.67 87C305.288 87 305.881 87.231 306.318 87.642C306.755 88.053 307 88.611 307 89.193C307 89.774 306.755 90.332 306.318 90.743C305.881 91.154 305.288 91.385 304.67 91.385C301.833 91.392 298.996 91.401 296.158 91.412L294.335 91.418H294.106C294.441 91.416 294.767 91.312 295.033 91.12C295.3 90.929 295.493 90.661 295.583 90.357L295.593 89.61C295.633 89.723 295.675 89.836 295.719 89.947C295.816 90.179 295.811 90.17 295.705 89.92C295.743 90.002 295.785 90.082 295.828 90.163C295.925 90.353 296.033 90.538 296.145 90.721C296.374 91.093 296.631 91.442 296.894 91.794C297.202 92.209 296.694 91.583 297.012 91.938C297.182 92.128 297.349 92.321 297.523 92.507C297.814 92.819 298.123 93.113 298.442 93.402C298.785 93.715 298.097 93.179 298.533 93.474C298.75 93.62 298.965 93.771 299.179 93.922C299.701 94.225 300.079 94.706 300.235 95.265C300.391 95.823 300.312 96.417 300.015 96.922C299.699 97.42 299.188 97.78 298.592 97.928C297.996 98.075 297.362 97.996 296.827 97.709H296.832Z" fill="#211715"/>
<path d="M306.572 0.204874C323.264 1.46327 339.029 8.33597 351.27 19.692C363.628 31.218 371.252 46.533 374.372 62.98C377.228 78.021 376.562 93.72 370.487 107.922C364.79 121.237 354.467 132.038 341.948 139.272C334.852 143.307 327.248 146.385 319.335 148.426C308.899 151.337 298.016 152.33 287.221 151.357C284.789 151.102 282.376 150.734 279.981 150.251L281.757 150.02C275.421 154.794 268.934 159.322 262.319 163.701C261.968 163.898 261.571 164.001 261.168 164C260.765 163.999 260.369 163.893 260.019 163.693C259.669 163.494 259.378 163.207 259.173 162.861C258.969 162.515 258.858 162.123 258.853 161.722C258.72 154.616 258.612 147.512 258.694 140.405L259.842 142.383C248.514 135.485 239.758 125.166 233.851 113.408C227.761 101.284 223.963 87.691 224 74.085C224.028 61.931 227.053 49.969 232.811 39.248C238.689 28.457 247.211 19.315 257.586 12.6692C270.337 4.57337 285.111 0.186473 300.238 0.00447301C302.35 -0.019427 304.462 0.0531743 306.574 0.204874C307.18 0.218974 307.758 0.464873 308.187 0.891573C308.616 1.31827 308.864 1.89287 308.878 2.49617C308.873 3.10227 308.628 3.68217 308.197 4.11077C307.766 4.53937 307.183 4.78237 306.574 4.78737C290.31 3.64897 274.106 7.70477 260.322 16.3638C249.438 23.276 240.73 33.095 235.195 44.699C229.8 56.225 227.65 68.991 228.974 81.637C229.787 88.811 231.519 95.853 234.127 102.591C236.692 109.571 240.209 116.169 244.578 122.198C248.489 127.569 253.247 132.276 258.669 136.136C259.326 136.598 259.993 137.048 260.668 137.484C261.612 138.094 262.9 138.619 263.224 139.791C263.366 140.707 263.386 141.638 263.284 142.559C263.276 143.496 263.271 144.433 263.269 145.37C263.26 148.694 263.296 152.018 263.35 155.343C263.385 157.468 263.423 159.592 263.464 161.717L259.998 159.739C264.189 156.965 268.356 154.153 272.439 151.221C274.295 149.885 276.137 148.532 277.966 147.162C278.403 146.834 278.83 146.465 279.285 146.171C279.629 145.968 280.012 145.84 280.409 145.794C280.806 145.748 281.208 145.786 281.589 145.905C282.879 146.139 284.163 146.382 285.463 146.56C296.484 148.059 307.757 146.777 318.447 143.912C333.767 139.807 348.228 131.989 358.247 119.526C367.556 107.952 371.711 93.15 371.427 78.392C371.102 61.492 365.915 44.201 355.308 30.836C344.738 17.4737 329.579 8.46437 312.739 5.53677C310.696 5.18737 308.643 4.94777 306.576 4.78827C305.969 4.77357 305.392 4.52737 304.963 4.10087C304.534 3.67437 304.286 3.10007 304.272 2.49707C304.276 1.89137 304.52 1.31167 304.95 0.882868C305.38 0.454168 305.963 0.210674 306.572 0.204874Z" fill="#211715"/>
<path d="M335.866 83.225C335.875 88.889 336.466 94.819 335.09 100.374C333.916 105.096 329.729 107.829 325.495 109.71C324.958 110 324.329 110.076 323.737 109.922C323.146 109.769 322.636 109.397 322.312 108.883C322.005 108.354 321.921 107.728 322.077 107.138C322.233 106.548 322.617 106.043 323.146 105.732C324.843 105.046 326.448 104.154 327.923 103.077C329.426 101.947 330.439 100.294 330.758 98.452C331.786 93.508 331.222 88.235 331.213 83.225C331.208 80.26 335.861 80.256 335.866 83.225Z" fill="#211715"/>
<path d="M321.797 104.1C321.329 104.417 320.931 104.826 320.63 105.303C320.328 105.779 320.129 106.313 320.045 106.869C319.961 107.426 319.994 107.994 320.142 108.537C320.29 109.08 320.549 109.588 320.904 110.027C321.545 110.702 322.328 111.228 323.198 111.567C324.068 111.905 325.002 112.048 325.934 111.986C327.956 111.92 330.657 109.961 330.975 107.716C331.283 105.538 328.659 103.673 326.238 103.154C325.474 102.963 324.677 102.95 323.907 103.114C323.137 103.278 322.415 103.615 321.797 104.1Z" fill="#211715"/>
<path d="M275.903 31.3119C273.686 32.5849 271.771 34.3599 270.3 36.5069C268.444 38.9259 267.015 41.6699 266.081 44.6119C264.039 50.9329 263.932 57.7599 265.773 64.1479C266.652 67.0039 262.35 68.2269 261.474 65.3839C259.367 58.0399 259.522 50.1909 261.919 42.9429C263.079 39.4669 264.809 36.2269 267.033 33.3689C268.782 30.8589 271.043 28.7849 273.654 27.2959C274.168 27.0009 274.77 26.9229 275.338 27.0779C275.905 27.2329 276.394 27.6099 276.702 28.1309C276.996 28.6639 277.076 29.2969 276.926 29.8919C276.777 30.4869 276.409 30.9969 275.903 31.3119Z" fill="#211715"/>
<path d="M294.322 43.368C297.332 45.355 300.298 47.452 303.409 49.255C303.642 49.391 303.876 49.519 304.116 49.649C304.221 49.709 304.524 49.981 304.265 49.736C304.06 49.541 304.141 49.728 304.276 49.736C304.961 49.754 302.371 50.631 303.3 50.238C301.166 51.135 302.198 50.957 302.34 50.448C302.439 50.193 302.555 49.945 302.687 49.708C303.213 48.688 303.6 47.591 303.834 46.452C304.127 44.45 306.423 44.414 307.579 45.389C315.228 51.834 323.191 57.771 330.305 64.926C332.416 67.049 329.241 70.447 327.136 68.333C320.023 61.18 312.058 55.237 304.41 48.792L308.156 47.729C307.797 49.346 307.227 50.9 306.465 52.346C306.325 52.78 306.098 53.176 305.8 53.505C305.502 53.833 305.139 54.087 304.739 54.247C304.339 54.407 303.91 54.471 303.485 54.432C303.059 54.393 302.647 54.254 302.277 54.023C298.695 52.306 295.394 49.731 292.06 47.531C289.606 45.911 291.855 41.743 294.322 43.37V43.368Z" fill="#211715"/>
<path d="M287.288 49.6359C279.254 52.8089 273.875 60.1709 270.358 67.8359C270.04 68.3729 269.525 68.7639 268.924 68.9219C268.323 69.0809 267.684 68.9949 267.144 68.6829C266.617 68.3579 266.236 67.8399 266.079 67.2369C265.922 66.6349 266.002 65.9949 266.302 65.4509C268.288 61.0869 270.9 57.0399 274.053 53.4389C275.725 51.5329 277.609 49.8269 279.669 48.3549C281.653 47.0089 283.791 45.9099 286.038 45.0809C286.638 44.9189 287.278 45.0009 287.819 45.3099C288.36 45.6189 288.758 46.1299 288.927 46.7309C289.078 47.3349 288.992 47.9749 288.686 48.5159C288.381 49.0569 287.879 49.4589 287.286 49.6379L287.288 49.6359Z" fill="#211715"/>
<path d="M323.025 23.0799C330.657 25.8819 335.994 33.2119 338.322 40.5389C340.864 48.5429 340.247 57.3029 338.274 65.3479C337.564 68.2409 332.932 67.0189 333.644 64.1169C335.38 57.0399 335.952 49.4199 333.868 42.3469C332.148 36.5089 327.903 29.8019 321.748 27.5429C321.144 27.3649 320.634 26.9709 320.322 26.4409C320.01 25.9119 319.921 25.2869 320.072 24.6959C320.245 24.1059 320.652 23.6059 321.205 23.3039C321.757 23.0009 322.411 22.9209 323.025 23.0799Z" fill="#211715"/>
<path d="M278.311 23.642C280.428 20.891 283.095 18.5796 286.152 16.8453C289.21 15.1111 292.596 13.9895 296.11 13.547C303.669 12.3749 311.413 13.0936 318.605 15.6348C322.987 17.2644 326.974 19.756 330.312 22.953C332.438 24.994 329.151 28.173 327.03 26.131C322.075 21.493 315.663 18.5888 308.81 17.878C302.519 17.1291 295.423 17.2901 289.634 20.053C286.748 21.412 284.239 23.421 282.318 25.911C281.995 26.412 281.486 26.774 280.896 26.924C280.306 27.074 279.679 27 279.144 26.717C278.616 26.413 278.232 25.92 278.076 25.345C277.921 24.77 278.005 24.158 278.311 23.642Z" fill="#211715"/>
<path d="M334.286 61.124C338.536 61.874 340.303 67.604 339.958 72.485C339.63 77.102 338.399 82.044 334.355 84.378C332.757 85.099 330.342 85.459 328.936 83.946C327.529 82.433 327.216 80.172 327.094 78.063C326.879 74.354 327.034 70.633 327.559 66.954C327.849 64.892 328.275 63.379 329.827 62.074C330.461 61.611 331.185 61.286 331.954 61.123C332.722 60.959 333.517 60.959 334.286 61.124Z" fill="white"/>
<path d="M334.836 58.142C339.307 59.106 341.297 64.026 341.812 68.312C342.415 73.004 341.558 77.774 339.37 81.912C338.228 84.028 336.422 85.661 334.261 86.531C333.157 86.984 331.957 87.112 330.789 86.901C329.621 86.691 328.53 86.15 327.632 85.336C325.801 83.481 325.317 80.677 325.132 78.132C324.925 75.095 324.962 72.045 325.243 69.014C325.5 66.135 325.697 63.019 327.494 60.682C329.334 58.289 332.057 57.681 334.832 58.143C335.4 58.312 335.882 58.708 336.174 59.247C336.466 59.786 336.545 60.424 336.393 61.023C336.224 61.614 335.844 62.114 335.334 62.418C334.823 62.723 334.22 62.809 333.651 62.659C333.103 62.568 332.542 62.636 332.029 62.857C331.516 63.078 331.071 63.443 330.742 63.912C329.859 65.288 329.845 67.41 329.702 69.014C329.501 71.266 329.428 73.528 329.484 75.789C329.384 77.592 329.626 79.398 330.194 81.102C331.507 84.073 334.702 81.046 335.675 79.267C337.074 76.397 337.702 73.18 337.492 69.962C337.46 68.324 337.108 66.711 336.458 65.222C336.232 64.581 335.856 64.011 335.366 63.563C334.875 63.116 334.285 62.805 333.651 62.659C333.368 62.578 333.104 62.437 332.873 62.248C332.642 62.059 332.449 61.824 332.304 61.556C332.159 61.288 332.066 60.993 332.03 60.688C331.994 60.382 332.016 60.072 332.093 59.776C332.171 59.479 332.304 59.201 332.484 58.958C332.664 58.715 332.888 58.512 333.142 58.36C333.397 58.208 333.678 58.11 333.968 58.072C334.259 58.034 334.554 58.057 334.836 58.139V58.142Z" fill="#211715"/>
<path d="M323.592 118.717C322.022 118.005 320.452 117.288 318.882 116.566C318.517 116.4 318.146 116.243 317.785 116.069C319.075 116.689 317.488 115.958 317.396 115.918C317.236 115.848 317.077 115.777 316.925 115.696C316.041 115.23 315.29 114.551 314.742 113.722C314.193 112.893 313.865 111.941 313.787 110.953C313.483 109.052 313.158 107.155 313 105.236C313.002 104.644 313.241 104.076 313.665 103.658C314.088 103.239 314.662 103.002 315.261 103C315.856 103.014 316.423 103.254 316.844 103.671C317.265 104.087 317.507 104.647 317.522 105.236C317.563 105.733 317.616 106.229 317.671 106.727C317.675 106.764 317.77 107.445 317.7 106.967C317.731 107.176 317.761 107.385 317.794 107.595C317.903 108.298 318.027 109 318.137 109.703C318.183 109.992 318.231 110.281 318.296 110.566C318.378 110.793 318.447 111.024 318.5 111.259C318.344 110.911 318.315 110.843 318.414 111.054C318.449 111.126 318.486 111.197 318.526 111.267C318.6 111.364 318.667 111.466 318.727 111.572C318.576 111.195 318.491 111.293 318.709 111.505C318.773 111.569 318.841 111.629 318.909 111.687C318.655 111.501 318.598 111.456 318.738 111.554C318.899 111.622 319.052 111.755 319.209 111.833C319.312 111.888 319.79 112.101 319.316 111.9C319.599 112.019 319.881 112.123 320.164 112.247C320.565 112.424 320.963 112.609 321.361 112.792C322.869 113.481 324.376 114.169 325.883 114.855C326.399 115.156 326.774 115.646 326.926 116.219C327.078 116.792 326.994 117.402 326.694 117.914C326.38 118.414 325.884 118.776 325.309 118.925C324.733 119.074 324.122 118.999 323.601 118.717H323.592Z" fill="#211715"/>
<path d="M350.584 131.681C343.515 127.651 335.959 124.669 328.521 121.431C327.865 121.025 327.146 120.733 326.394 120.567C325.842 120.548 325.255 121.106 324.78 121.373C323.489 122.084 322.157 122.717 320.791 123.268C317.737 124.523 314.581 125.51 311.359 126.219C304.597 127.797 297.593 128.005 290.751 126.832C287.389 126.255 284.081 125.398 280.859 124.27C279.349 123.739 277.861 123.139 276.408 122.466C275.818 122.194 275.234 121.905 274.662 121.594C274.155 121.242 273.614 120.943 273.048 120.7C272.317 120.488 271.552 120.988 270.898 121.276C269.851 121.732 268.803 122.187 267.754 122.642C265.613 123.569 263.467 124.485 261.315 125.391C257.263 127.091 253.376 129.169 249.457 131.157C246.842 132.483 244.531 128.51 247.157 127.179C250.693 125.386 254.202 123.502 257.831 121.902C261.682 120.202 265.583 118.612 269.444 116.931C271.419 116.068 273.274 115.692 275.304 116.679C276.555 117.288 277.725 118.046 278.999 118.623C281.957 119.91 285.028 120.911 288.172 121.613C294.876 123.269 301.856 123.436 308.631 122.102C311.989 121.444 315.285 120.497 318.483 119.271C319.771 118.777 321.024 118.197 322.236 117.535C323.843 116.647 325.222 115.766 327.149 116.056C328.283 116.32 329.378 116.73 330.407 117.277C331.509 117.757 332.611 118.236 333.713 118.716C335.818 119.626 337.929 120.522 340.046 121.403C344.45 123.235 348.738 125.34 352.885 127.706C355.441 129.163 353.145 133.143 350.585 131.684L350.584 131.681Z" fill="#211715"/>
<path d="M57.6266 40.885C59.5929 39.164 61.6676 37.567 63.8383 36.105C63.9833 35.999 64.1265 35.9 64.285 35.799C67.293 33.809 70.5345 32.188 73.9383 30.972C80.9185 28.271 88.3592 26.924 95.8544 27.004C108.26 26.851 120.306 31.126 129.783 39.043C142.311 49.969 148.885 64.994 146.954 89.835C144.253 108.486 151.218 128.782 149.81 144.161C149.401 148.773 147.075 154.327 140.616 158.712C140.616 158.712 119.701 166 96.0725 166C72.4442 166 48.3317 157.362 48.3317 157.362C38.2604 153.67 38.0942 147.403 38.0145 143.756C37.8907 139.27 38.5619 134.797 39.9976 130.54C41.7808 124.695 45.0505 112.829 44.6335 91.846C43.8754 85.79 44.1589 76.992 44.2962 73.611C44.7766 61.887 49.7892 48.639 57.3902 41.108C57.4613 41.037 57.5449 40.961 57.6304 40.886" fill="#B5886A"/>
<path d="M63.1172 34.541C68.7375 30.491 75.6828 27.91 82.3977 26.439C89.9366 24.782 97.7146 24.554 105.336 25.766C117.136 27.646 127.936 33.571 135.922 42.545C143.688 51.375 147.687 62.375 148.877 74.028C149.221 77.516 149.355 81.022 149.276 84.527C149.202 88.443 148.674 92.29 148.456 96.19C148.018 104.051 148.898 111.912 149.9 119.695C150.842 126.997 152.017 134.343 151.986 141.728C152.08 144.739 151.711 147.746 150.891 150.642C149.87 153.743 148.185 156.577 145.956 158.945C144.618 160.344 143.142 161.599 141.55 162.692C141.025 162.995 140.403 163.079 139.818 162.924C139.233 162.769 138.731 162.388 138.422 161.863C138.128 161.332 138.049 160.706 138.202 160.117C138.355 159.528 138.727 159.021 139.242 158.704C141.867 156.908 144.024 154.499 145.529 151.681C146.601 149.522 147.208 147.159 147.311 144.747C147.736 137.899 146.8 131.017 145.918 124.242C144.943 116.759 143.888 109.261 143.775 101.701C143.718 97.853 144.149 94.122 144.435 90.304C144.708 86.704 144.785 83.091 144.666 79.483C144.29 68.418 141.567 57.557 134.949 48.592C128.634 40.162 119.703 34.112 109.584 31.409C96.3495 27.882 82.2922 29.408 70.1025 35.695C68.4826 36.535 66.9192 37.481 65.4225 38.528C64.8978 38.832 64.2756 38.916 63.6902 38.761C63.1049 38.606 62.6034 38.225 62.2941 37.7C62.0013 37.167 61.9235 36.542 62.0769 35.953C62.2303 35.364 62.603 34.859 63.1172 34.541Z" fill="#211715"/>
<path d="M47.9332 160.925C43.1253 159.064 38.7713 156.096 36.9798 150.965C35.5326 146.825 35.946 141.693 36.5854 137.482C37.204 133.401 38.6115 129.509 39.5706 125.506C40.5197 121.529 41.2317 117.498 41.7027 113.433C42.4863 106.346 42.7948 99.2129 42.6259 92.0829L44.2925 94.3179H44.2878C43.8187 94.1659 43.407 93.8699 43.1089 93.4699C42.8108 93.0699 42.6408 92.5859 42.6221 92.0839C41.8981 85.3099 41.823 78.4809 42.3979 71.6919C43.0085 63.7229 45.1905 55.9629 48.8129 48.8769C50.6619 45.0749 53.1186 41.6149 56.0821 38.6389C58.2198 36.6109 61.4378 39.8799 59.2925 41.9169C54.2717 46.6859 51.1029 53.6619 49.1307 60.2549C47.2087 66.6799 46.7367 73.1449 46.6714 79.8189C46.5764 83.9139 46.7397 88.0109 47.1604 92.0849L45.4938 89.8499C45.9663 89.9959 46.3816 90.2909 46.6808 90.6919C46.98 91.0929 47.1478 91.5799 47.1604 92.0849C47.4968 102.924 46.5953 113.767 44.4741 124.394C43.8272 127.423 42.9607 130.374 42.135 133.353C41.2571 136.372 40.7556 139.493 40.6423 142.64C40.6158 143.691 40.6291 144.744 40.6698 145.795C40.6811 146.078 40.6944 146.36 40.7152 146.643C40.7275 146.82 40.7454 146.998 40.7606 147.176C40.8154 147.843 40.7265 147.079 40.7965 147.484C40.99 149.135 41.615 150.703 42.606 152.023C44.3567 154.066 46.6098 155.595 49.1326 156.451C49.7041 156.628 50.1871 157.023 50.4822 157.553C50.7773 158.084 50.862 158.709 50.7189 159.302C50.5548 159.892 50.1698 160.393 49.6472 160.696C49.1245 160.998 48.5062 161.079 47.9257 160.92L47.9332 160.925Z" fill="#211715"/>
<path d="M119.605 146.938C117.598 146.112 115.426 145.208 112.774 143.975C112.2 143.7 111.667 143.341 111.189 142.909C104.156 144.887 96.7333 144.731 89.7817 142.459C83.7351 140.379 78.2218 136.875 73.6639 132.213C72.2698 130.887 70.947 129.481 69.7017 128C68.6926 131.6 67.3826 135.1 65.7869 138.458C64.8731 140.398 57.7124 146.177 54 148.352C69.6979 155.591 86.2232 160.462 105.195 158.602C111.578 157.977 120.11 155.111 124.948 149.284C124.965 149.264 124.982 149.243 125 149.223C124.953 149.205 124.927 149.193 124.927 149.193C123.13 148.38 121.436 147.693 119.605 146.938Z" fill="white"/>
<path d="M124.914 77.143C122.143 74.658 119.406 72.14 116.762 69.675C116.968 72.68 117.289 75.572 117.778 78.59C117.808 78.764 117.793 78.944 117.733 79.11C117.673 79.276 117.571 79.425 117.437 79.54C117.303 79.656 117.141 79.735 116.968 79.77C116.794 79.804 116.614 79.794 116.446 79.739C105.154 75.903 94.7622 69.319 88.0145 61C86.3624 65.546 84.4482 69.993 82.2815 74.319C79.5727 79.65 72.7534 88.873 66.7631 90.457C65.1929 91.048 63.1487 91.632 61.5796 92.222C58.9404 89.648 54.4022 89.641 51.3926 91.772C49.9314 92.905 48.7695 94.377 48.0077 96.061C47.246 97.744 46.9075 99.587 47.0217 101.431C47.2964 105.13 48.6643 108.665 50.9524 111.587C53.8889 115.45 57.8127 118.452 62.3119 120.28C65.0695 125.151 68.5892 129.55 72.7379 133.312C77.3793 137.825 82.9932 141.218 89.1502 143.231C96.2297 145.431 103.789 145.582 110.951 143.667C114.808 142.662 118.487 141.068 121.857 138.941C125.737 136.353 129.097 133.061 131.764 129.238C135.11 124.693 137.672 119.622 139.345 114.235C140.935 109.354 141.985 104.314 142.475 99.205C142.811 96.307 142.946 93.853 143 92.08C141.948 91.307 140.61 90.245 139.403 89.398C134.681 85.716 129.746 81.479 124.914 77.143Z" fill="white"/>
<path d="M4.22813 255.534C8.23363 228.656 10.9743 211.938 17.7205 187.389C20.1174 179.251 23.8977 171.59 28.8943 164.744C31.3628 161.574 34.2437 158.75 37.4601 156.348C41.946 153.003 46.8403 150.247 52.0235 148.15C52.2625 148.049 52.5195 147.998 52.7788 148C53.038 148.003 53.2941 148.058 53.531 148.164C69.2964 155.149 85.8882 159.871 104.95 158.083C111.325 157.486 119.845 154.75 124.677 149.187C124.932 148.894 125.27 148.687 125.647 148.594C126.023 148.501 126.419 148.527 126.78 148.669C130.302 150.041 133.667 151.463 137.115 153.001C140.092 154.381 142.871 156.155 145.378 158.277C149.063 161.464 151.801 165.609 153.29 170.257C156.072 178.224 158.214 186.401 159.694 194.711C161.563 205.006 163.204 213.986 165.709 224.11C165.709 224.11 165.821 224.693 166 225.633C161.027 225.791 156.874 225.919 153.896 226.014C152.583 226.055 151.325 226.549 150.335 227.415C149.345 228.281 148.684 229.463 148.464 230.763C147.013 239.295 145.537 247.935 144.005 256.865C143.935 257.27 143.867 257.667 143.797 258.073C138.105 249.407 134.464 240.69 130.22 232.343C128.512 235.822 126.534 239.178 124.918 242.699C123.935 244.89 123.125 247.154 122.495 249.471C122.371 249.909 122.225 250.338 122.061 250.763C121.004 253.513 121.153 258.197 119.062 263.158C116.158 261.271 113.159 259.536 110.075 257.961C106.214 255.99 101.888 254.238 97.6663 255.152C92.2777 256.323 89.6659 258.713 84.3153 260.027C80.4038 260.994 78.2797 260.027 74.8976 260.008C70.1541 269.173 68.1077 284.406 68.0148 287C63.2362 286.93 40.9769 286.577 33.7725 285.841C28.0879 285.26 22.2591 285.132 16.9312 283.059C15.4753 282.493 14.0789 281.784 12.7626 280.941C9.16093 278.786 6.47603 275.375 5.22053 271.359C4.05793 266.17 3.72303 260.828 4.22813 255.534Z" fill="#FFDA71"/>
<path d="M68.6959 252.644C56.2693 253.578 43.6391 252.444 31.2191 251.869C28.2699 251.733 28.2507 247.866 31.2191 248.004C43.6343 248.579 56.2693 249.712 68.6959 248.779C69.3055 248.783 69.8888 248.988 70.3199 249.35C70.7509 249.711 70.9952 250.2 71 250.712C70.9877 251.221 70.7411 251.707 70.3116 252.067C69.8821 252.427 69.3032 252.634 68.6959 252.644Z" fill="#211715"/>
<path d="M138.916 197.835C138.523 199.782 138.304 201.76 138.262 203.745C138.084 205.948 137.959 208.155 137.808 210.36C137.6 214.738 137.03 219.091 136.104 223.376C134.983 227.625 133.331 231.718 131.188 235.556C129.204 239.324 127.073 243.018 125.72 247.073C124.955 249.14 124.332 251.256 123.857 253.408C123.422 255.741 123.124 258.079 122.506 260.38C121.743 263.22 117.322 262.015 118.089 259.164C118.644 257.103 118.957 255.006 119.314 252.904C119.687 251.099 120.171 249.319 120.763 247.573C122.102 243.395 123.861 239.362 126.011 235.537C128.166 231.84 129.92 227.923 131.243 223.853C132.315 219.727 132.958 215.501 133.163 211.242C133.342 208.743 133.477 206.242 133.679 203.745C133.739 201.351 134.013 198.967 134.496 196.622C135.252 193.779 139.671 194.985 138.913 197.838L138.916 197.835Z" fill="#211715"/>
<path d="M132.426 232.197C136.435 239.997 140.026 248.003 144.636 255.488C146.244 258.096 142.094 260.476 140.492 257.876C135.879 250.386 132.292 242.385 128.282 234.584C126.89 231.875 131.029 229.478 132.426 232.197Z" fill="#211715"/>
<path d="M71.8982 129.74C71.0251 132.488 69.9335 135.173 68.6322 137.774C68.2503 138.687 67.7732 139.563 67.2077 140.391C66.6686 141.066 66.0589 141.692 65.3874 142.258C62.1038 145.094 58.484 147.584 54.5959 149.679C51.9146 151.126 49.4855 147.299 52.1617 145.853C55.6372 143.992 58.8766 141.781 61.82 139.262C62.3565 138.805 62.863 138.319 63.3369 137.807C63.1762 137.983 63.0908 138.176 63.2526 137.878C63.3319 137.73 63.4223 137.584 63.5017 137.434C63.8111 136.858 64.1045 136.274 64.3948 135.688C65.5382 133.382 66.4919 131 67.2479 128.562C68.0877 125.822 72.742 126.986 71.8982 129.74Z" fill="#211715"/>
<path d="M123.62 151.7L123.257 151.535C122.678 151.271 123.498 151.634 123.163 151.493C122.925 151.393 122.687 151.283 122.448 151.179C121.915 150.948 121.38 150.72 120.844 150.495C119.766 150.043 118.683 149.6 117.605 149.143C116.314 148.6 115.029 148.04 113.751 147.465C112.271 146.902 110.887 146.087 109.654 145.051C109.235 144.602 109 143.996 109 143.363C109 142.731 109.235 142.125 109.654 141.676C110.082 141.242 110.651 141 111.243 141C111.834 141 112.403 141.242 112.832 141.676C112.899 141.737 113.101 141.913 112.913 141.763C113.036 141.863 113.166 141.949 113.296 142.034C113.612 142.228 113.94 142.399 114.277 142.547C114.593 142.693 114.908 142.839 115.224 142.984L115.795 143.242C115.586 143.148 115.866 143.273 115.925 143.299C117.07 143.806 118.22 144.3 119.376 144.782C121.555 145.694 123.737 146.594 125.889 147.577C126.402 147.898 126.775 148.422 126.926 149.034C127.077 149.646 126.994 150.296 126.695 150.843C126.382 151.375 125.889 151.76 125.317 151.919C124.746 152.079 124.139 152 123.62 151.7Z" fill="#211715"/>
<path d="M60.3152 94.847C58.2769 93.011 54.8993 93.223 52.7801 94.829C50.242 96.755 49.3225 100.172 49.6905 103.169C50.5925 110.536 57.2695 115.995 63.845 118.781C64.3783 119.089 64.7656 119.588 64.9229 120.17C65.0802 120.753 64.9949 121.372 64.6855 121.894C64.361 122.403 63.8472 122.772 63.2505 122.924C62.6539 123.076 62.0199 122.999 61.4797 122.71C54.5655 119.78 48.6372 114.544 46.0093 107.562C43.5289 100.971 45.5495 92.37 52.8562 89.672C54.6638 89.001 56.6276 88.828 58.5299 89.174C60.4323 89.519 62.1989 90.369 63.6341 91.63C65.8491 93.625 62.5301 96.836 60.321 94.847H60.3152Z" fill="#211715"/>
<path d="M144.998 92.187C144.799 100.687 143.203 109.1 140.272 117.101C137.269 124.956 132.354 132.639 125.554 137.865C112.197 148.129 92.5805 148.635 78.4263 139.64C70.9547 134.82 64.7515 128.336 60.3235 120.716C58.8438 118.178 62.8368 115.891 64.3164 118.427C67.8958 124.566 72.7175 129.923 78.4851 134.168C84.4567 138.614 91.6699 141.166 99.1604 141.483C106.651 141.8 114.061 139.867 120.401 135.943C127.048 131.728 132.008 124.832 135.062 117.761C138.403 109.624 140.203 100.957 140.374 92.187C140.481 89.278 145.106 89.264 144.998 92.187Z" fill="#211715"/>
<path d="M89.9222 62.8009C87.759 68.4849 85.306 74.4119 81.7259 79.4479C78.3947 84.1339 74.0429 89.278 68.5172 91.718C67.977 91.999 67.3438 92.074 66.7478 91.925C66.1518 91.777 65.6382 91.4179 65.3129 90.9219C65.0047 90.4119 64.9201 89.8079 65.0773 89.2389C65.2344 88.6709 65.6208 88.1839 66.153 87.8829C71.0727 85.7099 74.9279 81.1429 77.862 76.9459C81.1278 72.2809 83.4081 66.8639 85.4045 61.6199C85.5828 61.0599 85.9814 60.5859 86.5175 60.2969C87.0537 60.0079 87.6865 59.9259 88.2849 60.0679C88.8808 60.2289 89.3862 60.606 89.6921 61.117C89.9979 61.628 90.0799 62.2329 89.9202 62.8009H89.9222Z" fill="#211715"/>
<path d="M90.8266 60.639C94.2162 64.638 98.2218 68.099 102.7 70.899C105.013 72.36 107.417 73.678 109.898 74.847C111.156 75.442 112.431 76.005 113.729 76.517C115.025 77.119 116.381 77.591 117.775 77.927H116.578C116.168 79.16 115.937 79.456 115.885 78.816C115.861 78.667 115.838 78.517 115.815 78.367C115.759 77.994 115.704 77.622 115.651 77.249C115.541 76.463 115.436 75.676 115.342 74.887C115.167 73.405 115.033 71.92 114.926 70.432C114.781 68.43 117.442 67.654 118.784 68.871C123.019 72.728 127.29 76.54 131.665 80.24C135.53 83.71 139.637 86.915 143.957 89.831C146.389 91.368 144.127 95.186 141.678 93.637C137.157 90.598 132.855 87.26 128.802 83.646C124.309 79.858 119.926 75.948 115.585 71.995L119.444 70.434C119.612 72.771 119.847 75.104 120.206 77.421C120.527 78.467 120.47 79.588 120.044 80.597C119.759 81.096 119.344 81.512 118.841 81.804C118.338 82.095 117.765 82.252 117.18 82.258C116.212 82.152 115.27 81.887 114.393 81.474C113.395 81.111 112.406 80.724 111.423 80.322C109.531 79.547 107.669 78.712 105.849 77.787C98.8707 74.355 92.6754 69.583 87.6355 63.755C87.2274 63.334 87 62.777 87 62.197C87 61.617 87.2274 61.06 87.6355 60.639C88.0612 60.229 88.6348 60 89.2325 60C89.8301 60 90.4037 60.229 90.8295 60.639H90.8266Z" fill="#211715"/>
<path d="M128.198 283.604C128.198 283.493 128.198 283.384 128.198 283.278C128.171 282.185 127.76 281.138 127.038 280.324L126.202 279.253L127.29 279.485C128.082 279.677 128.913 279.627 129.677 279.34C130.44 279.053 131.102 278.543 131.577 277.875C132.37 276.694 131.869 274.703 131.52 273.988C130.949 273.024 130.239 272.151 129.414 271.397C128.461 270.444 124.325 267.253 123.249 266.462C118.955 263.302 114.417 260.492 109.68 258.06C105.837 256.088 101.532 254.335 97.3301 255.249C91.967 256.421 89.3676 258.811 84.0422 260.126C80.2918 261.058 78.1881 260.198 75.0335 260.114C71.9384 266.131 69.9961 274.763 69 280.717L69.6543 280.914C71.0017 281.486 74.4084 283.616 78.3297 285.256C80.0795 285.983 81.9545 286.353 83.8468 286.345C85.739 286.337 87.6108 285.951 89.3543 285.209C92.4304 288.659 95.7944 291.837 99.4092 294.708C100.081 295.252 102.311 296.905 104.13 295.35C105.325 294.327 105.045 291.99 104.456 291.079C101.619 286.69 100.413 283.436 97.2744 279.39C102.478 282.652 107.483 286.471 112.665 289.783C114.35 290.86 115.755 291.795 117.721 291.448C118.603 291.306 119.402 290.839 119.964 290.138C120.525 289.437 120.809 288.55 120.761 287.65C120.656 286.689 120.309 285.771 119.753 284.983L121.314 285.713C122.266 286.207 123.288 286.549 124.344 286.727C124.885 286.809 125.438 286.771 125.963 286.614C126.488 286.458 126.973 286.188 127.383 285.823C127.887 285.193 128.173 284.414 128.198 283.604Z" fill="white"/>
<path d="M129.317 277.475C129.823 277.545 130.339 277.453 130.786 277.214C131.443 276.781 131.263 276.065 131.063 275.408C130.917 274.932 131.005 275.227 131.063 275.339C130.96 275.133 130.84 274.936 130.703 274.749C130.396 274.361 130.059 273.996 129.694 273.658C129.209 273.181 128.698 272.731 128.162 272.308C125.19 269.932 122.08 267.721 118.848 265.686C114.387 262.873 109.544 259.906 104.449 258.308C101.994 257.456 99.3288 257.342 96.8053 257.982C94.6041 258.629 92.4579 259.439 90.3857 260.406C87.7841 261.618 85.0151 262.461 82.1641 262.909C79.4998 263.247 76.9358 262.725 74.2794 262.624C71.2477 262.507 71.233 257.943 74.2794 258.06C76.797 258.155 79.3324 258.759 81.851 258.375C84.5569 257.838 87.1768 256.956 89.6413 255.751C92.1826 254.531 94.8844 253.652 97.6718 253.138C100.819 252.756 104.015 253.168 106.949 254.334C112.939 256.702 118.611 259.761 123.841 263.445C127.125 265.491 130.203 267.831 133.036 270.431C135.081 272.462 136.668 275.201 135.717 278.126C134.699 281.257 131.124 282.405 128.064 281.876C127.462 281.711 126.952 281.324 126.644 280.799C126.335 280.273 126.252 279.652 126.414 279.069C126.592 278.492 126.993 278.004 127.535 277.707C128.077 277.41 128.716 277.327 129.32 277.475H129.317Z" fill="#211715"/>
<path d="M112.206 266.327C116.188 268.84 120.008 271.614 123.641 274.632C126.784 277.193 131.116 280.608 129.736 285.349C129.489 286.246 129.001 287.053 128.328 287.679C127.654 288.305 126.823 288.723 125.929 288.887C123.88 289.281 122.033 288.583 120.192 287.718C119.702 287.418 119.346 286.933 119.202 286.367C119.057 285.801 119.135 285.199 119.419 284.691C119.717 284.195 120.189 283.835 120.739 283.687C121.288 283.539 121.872 283.615 122.368 283.897C122.888 284.151 123.429 284.354 123.985 284.505C124.322 284.617 124.681 284.639 125.029 284.57C125.125 284.548 125.575 284.36 125.428 284.437C125.307 284.499 125.506 284.344 125.545 284.267C125.687 283.924 125.726 283.544 125.655 283.178C125.681 283.38 125.572 282.867 125.547 282.793C125.598 282.942 125.355 282.424 125.277 282.307C125.157 282.117 124.907 281.565 124.691 281.446C124.819 281.516 125.046 281.869 124.781 281.581C124.691 281.48 124.601 281.374 124.511 281.272C124.305 281.047 124.088 280.831 123.87 280.619C121.136 278.061 118.218 275.719 115.139 273.614C113.47 272.409 111.779 271.23 110.029 270.151C107.654 268.687 109.818 264.86 112.204 266.331L112.206 266.327Z" fill="#211715"/>
<path d="M104.51 269.401C107.918 271.768 111.197 274.34 114.476 276.914C117.466 279.26 120.713 281.451 122.336 285.259C123.876 288.876 122.707 293.186 119.141 294.604C115.308 296.127 111.764 292.915 108.774 290.707C104.853 287.811 101.032 284.754 97.0509 281.959C94.6075 280.244 96.8676 275.933 99.3271 277.659C103.067 280.284 106.667 283.141 110.34 285.878C112.064 287.342 113.907 288.627 115.845 289.717C116.706 290.123 117.967 290.181 118.413 289.258C118.916 288.22 118.214 287.063 117.479 285.981C116.162 284.317 114.616 282.892 112.9 281.757C109.386 279.004 105.885 276.232 102.237 273.697C99.7847 271.994 102.049 267.679 104.513 269.397L104.51 269.401Z" fill="#211715"/>
<path d="M99.8681 279.1C101.405 281.368 102.814 283.725 104.087 286.158C105.343 288.42 107.198 290.57 106.983 293.334C106.956 294.102 106.753 294.852 106.392 295.526C106.03 296.199 105.52 296.777 104.902 297.213C104.266 297.624 103.549 297.882 102.802 297.968C102.055 298.054 101.299 297.966 100.591 297.711C99.4966 297.291 98.4859 296.672 97.6075 295.884C96.4669 294.944 95.3459 293.978 94.2445 292.988C91.9028 290.874 89.6921 288.612 87.6253 286.217C87.2239 285.787 87 285.216 87 284.621C87 284.027 87.2239 283.455 87.6253 283.025C88.0415 282.607 88.6018 282.372 89.1854 282.372C89.769 282.372 90.3293 282.607 90.7455 283.025C92.3194 284.851 93.9742 286.597 95.71 288.264C96.6127 289.126 97.5342 289.967 98.4744 290.786C98.9285 291.183 99.3858 291.574 99.846 291.962C100.101 292.176 100.357 292.389 100.613 292.601C100.715 292.704 100.827 292.796 100.947 292.877C100.808 292.805 100.51 292.56 100.829 292.783C101.127 292.991 101.436 293.183 101.755 293.358C102.082 293.538 101.571 293.353 101.948 293.424C102.078 293.45 102.203 293.499 102.336 293.518C102.027 293.466 102.256 293.559 102.353 293.491C102.331 293.506 101.868 293.673 102.383 293.484C102.394 293.484 102.695 293.343 102.529 293.434C102.277 293.569 102.668 293.17 102.423 293.571C102.559 293.349 102.543 293.146 102.503 293.462C102.531 293.374 102.554 293.285 102.572 293.195C102.606 293.028 102.603 293.075 102.565 293.334L102.579 293.146C102.579 292.958 102.579 292.77 102.572 292.582C102.565 292.155 102.56 292.552 102.581 292.64C102.561 292.555 102.551 292.469 102.526 292.386C102.501 292.303 102.476 292.223 102.46 292.144C102.382 291.768 102.473 292.181 102.52 292.259C102.371 292.014 102.226 291.765 102.074 291.521C101.422 290.473 100.808 289.402 100.209 288.324C98.9566 285.928 97.5691 283.609 96.0538 281.379C95.7624 280.861 95.6821 280.246 95.8303 279.668C95.9784 279.091 96.343 278.595 96.8453 278.29C97.3535 278.002 97.951 277.925 98.5133 278.076C99.0756 278.226 99.5593 278.593 99.8635 279.1H99.8681Z" fill="#211715"/>
<path d="M88.396 288.249C84.4179 289.517 80.1619 289.171 76.394 287.272C73.5567 285.921 70.9507 284.048 68.1268 282.692C67.6064 282.35 67.2286 281.796 67.0752 281.148C66.9218 280.5 67.0051 279.811 67.3072 279.231C67.6232 278.665 68.1238 278.254 68.7055 278.085C69.2872 277.916 69.9054 278.001 70.432 278.323C72.9409 279.529 75.267 281.191 77.7607 282.445C80.6879 284.042 84.0481 284.372 87.1834 283.37C90.0074 282.439 91.2133 287.321 88.3979 288.249H88.396Z" fill="#211715"/>
<path d="M163.486 224.692C161.728 217.656 160.254 210.558 158.903 203.438C157.557 196.332 156.322 189.219 154.435 182.227C153.497 178.749 152.432 175.307 151.241 171.9C150.286 169.01 148.897 166.279 147.12 163.798C143.153 158.458 136.794 155.621 130.805 153.148C129.272 152.515 127.714 151.949 126.191 151.303C125.87 151.166 125.51 151.149 125.933 151.01C125.797 151.055 125.516 151.467 125.416 151.572C124.862 152.153 124.273 152.7 123.652 153.209C121.4 155.041 118.889 156.535 116.198 157.642C110.573 160.008 104.645 160.772 98.5729 160.942C85.0886 161.313 71.7777 158.453 59.2317 153.693C57.8477 153.168 56.4717 152.622 55.1037 152.057C54.2973 151.725 53.4935 151.388 52.6922 151.046C51.7031 150.624 51.775 150.485 50.8261 150.898C47.6924 152.237 44.6539 153.784 41.7314 155.529C36.2328 158.789 31.4897 163.158 27.811 168.352C24.2495 173.542 21.4043 179.178 19.3508 185.113C17.2796 191.089 15.8764 197.359 14.3947 203.499C11.5309 215.366 9.29583 227.359 7.35013 239.402C6.81593 242.706 6.29652 246.012 5.79172 249.32C5.23452 252.227 4.84663 255.164 4.63013 258.116C4.54673 260.825 4.66463 263.536 4.98283 266.227C5.13193 268.535 5.72022 270.794 6.71662 272.885C9.47792 277.99 15.034 280.751 20.5498 281.916C24.0438 282.539 27.5719 282.957 31.1157 283.169C32.9319 283.335 34.7444 283.493 36.5654 283.595C45.4205 284.092 54.2967 284.234 63.1671 284.386C64.445 284.408 65.7229 284.428 67.0008 284.447L64.7006 286.723C64.9297 283.419 65.4103 280.137 66.1382 276.905C67.0451 271.919 68.4421 267.032 70.3094 262.315C71.2715 259.789 72.5726 257.403 74.1777 255.22C74.499 254.714 75.0032 254.347 75.5877 254.195C76.1722 254.044 76.7931 254.118 77.3242 254.403C77.8481 254.711 78.2284 255.21 78.3829 255.793C78.5373 256.376 78.4535 256.996 78.1495 257.518C74.4796 262.225 72.8157 268.354 71.4557 274.059C70.8059 276.785 70.2627 279.534 69.8263 282.306C69.7394 282.858 69.6573 283.411 69.58 283.966C69.6615 283.381 69.5551 284.164 69.5417 284.27C69.5139 284.488 69.487 284.704 69.4621 284.921C69.3931 285.52 69.326 286.121 69.3011 286.723C69.2917 287.324 69.0463 287.898 68.617 288.323C68.1876 288.748 67.608 288.991 67.0008 289C58.602 288.878 50.2003 288.715 41.8052 288.391C37.359 288.217 32.9473 287.879 28.5155 287.497C21.6722 286.906 14.6314 286.027 8.92103 281.911C6.37583 280.158 4.26333 277.858 2.74103 275.184C1.50473 272.687 0.744625 269.986 0.499225 267.216C0.123525 264.407 -0.0404744 261.575 0.00842557 258.742C0.184126 255.611 0.566027 252.495 1.15193 249.413C3.11283 236.598 5.17743 223.794 7.93103 211.119C9.30543 204.788 10.8328 198.493 12.5133 192.234C14.105 185.835 16.3844 179.622 19.3125 173.703C22.1922 167.787 26.1289 162.435 30.9326 157.906C36.2592 153.246 42.3296 149.492 48.8968 146.797C49.6947 146.277 50.629 146 51.5843 146C52.5395 146 53.4738 146.277 54.2717 146.797C55.8199 147.465 57.379 148.106 58.949 148.722C62.0812 149.95 65.2555 151.074 68.473 152.061C74.9289 154.087 81.5829 155.433 88.3243 156.076C94.8053 156.65 101.724 156.828 108.115 155.437C110.898 154.86 113.595 153.932 116.14 152.676C117.407 152.047 118.618 151.314 119.762 150.486C120.918 149.632 121.803 148.554 122.869 147.618C124.347 146.319 126.108 146.404 127.838 147.078C129.705 147.803 131.56 148.559 133.408 149.332C136.776 150.605 140.007 152.209 143.052 154.119C145.928 155.959 148.487 158.246 150.629 160.892C152.597 163.509 154.154 166.406 155.247 169.484C160.464 183.55 162.373 198.387 165.489 212.972C166.24 216.489 167.052 219.993 167.923 223.482C168.634 226.328 164.199 227.539 163.486 224.692Z" fill="#211715"/>
<path d="M65.3834 119.241C68.7433 120.851 72.2332 122.224 75.8228 123.35C79.6068 124.494 83.5146 125.216 87.3983 126.016C90.2035 126.591 89.016 130.519 86.2099 129.942C82.187 129.214 78.2097 128.289 74.2954 127.173C70.4606 125.95 66.728 124.475 63.1268 122.761C60.5657 121.565 62.8251 118.05 65.3834 119.244V119.241Z" fill="#211715"/>
<path d="M90.5501 126.469C90.9831 126.836 91.335 127.288 91.5839 127.796C91.8329 128.305 91.9733 128.859 91.9966 129.424C92.0198 129.989 91.9252 130.552 91.7189 131.079C91.5125 131.606 91.1988 132.085 90.7974 132.486C90.0849 133.091 89.2464 133.532 88.3419 133.778C87.4375 134.023 86.4896 134.066 85.5665 133.904C83.5559 133.62 81.0708 131.375 81.0013 129.097C80.93 126.889 83.7537 125.307 86.2265 125.049C87.0085 124.941 87.805 125.013 88.5545 125.259C89.3041 125.506 89.9868 125.92 90.5501 126.469Z" fill="#211715"/>
<path d="M62.1005 112C62.8383 115.82 63.8023 119.583 64.9866 123.268C65.0366 123.769 64.9459 124.274 64.7265 124.718C64.5072 125.161 64.1694 125.522 63.7576 125.753C62.4836 126.5 61.0664 126.912 59.6195 126.958C59.1657 127.045 58.6984 126.996 58.2684 126.816C57.8384 126.636 57.4621 126.331 57.1803 125.934C55.5602 121.854 54.4891 117.541 54 113.129L62.1005 112Z" fill="#211715"/>
<path d="M66.8767 124.388C64.0456 122.46 61.795 119.972 60.3158 117.134C60.0083 116.643 59.9216 116.071 60.0722 115.528C60.244 115.007 60.64 114.562 61.1793 114.283C61.458 114.144 61.766 114.054 62.0854 114.018C62.4048 113.982 62.7293 114.001 63.0402 114.073C63.3424 114.142 63.6258 114.261 63.8738 114.425C64.1218 114.589 64.3294 114.794 64.4844 115.028C64.8202 115.679 65.2003 116.311 65.6227 116.923C65.8454 117.244 66.0802 117.559 66.3272 117.868C66.4365 118.007 66.5489 118.145 66.6643 118.282C66.7287 118.357 66.7941 118.432 66.8575 118.507C67.0991 118.792 66.5737 118.199 66.7569 118.397C67.7963 119.526 68.9837 120.548 70.2955 121.441C70.5196 121.635 70.6972 121.865 70.8181 122.118C70.939 122.372 71.0008 122.643 71 122.917C70.997 123.469 70.7442 123.998 70.2955 124.392C69.8404 124.782 69.2255 125 68.5846 125C67.9512 124.969 67.3484 124.755 66.8736 124.392L66.8767 124.388Z" fill="#211715"/>
<path d="M52.3894 101.631C51.3156 103.603 50.8454 105.884 51.0447 108.155C51.0728 110.258 51.7125 112.299 52.8753 113.996C53.5401 114.855 54.4323 115.479 55.4349 115.786C56.4375 116.093 57.5036 116.069 58.4933 115.717C59.4802 115.263 60.3349 114.533 60.9682 113.605C61.8921 112.324 62.525 110.83 62.8167 109.243C63.1085 107.655 63.0513 106.017 62.6495 104.457C62.4386 103.413 62.0187 102.43 61.4186 101.575C60.8185 100.721 60.0526 100.015 59.1733 99.507C57.2469 98.492 53.6697 98.904 52.3852 101.628" fill="white"/>
<path d="M54.7972 102.388C54.0726 103.761 53.6464 105.279 53.5479 106.838C53.4494 108.397 53.6809 109.959 54.2266 111.417C54.5813 112.538 55.3419 113.476 56.351 114.036C56.7542 114.259 56.5107 114.103 56.4147 114.068C56.5506 114.117 56.6876 114.165 56.8264 114.203C56.9957 114.252 57.1687 114.284 57.3399 114.326C57.6908 114.413 56.989 114.306 57.3399 114.326C57.63 114.35 57.9212 114.356 58.2119 114.345C58.3327 114.338 58.4544 114.327 58.5752 114.314C58.2985 114.345 58.2747 114.377 58.5543 114.291C58.6779 114.253 58.8034 114.221 58.928 114.182C58.8158 114.217 58.521 114.41 59.004 114.141C59.1571 114.056 59.3083 113.969 59.4557 113.872C59.8361 113.622 59.702 113.697 59.6164 113.767C60.1483 113.329 60.6078 112.805 60.9772 112.217C61.7799 110.993 62.2704 109.582 62.4036 108.113C62.5369 106.654 62.3323 105.183 61.8064 103.821C61.6667 103.439 61.9224 104.064 61.7541 103.692C61.6685 103.501 61.5766 103.314 61.4784 103.132C61.3224 102.836 61.1467 102.551 60.9525 102.28C61.0172 102.369 61.1427 102.505 60.8441 102.16C60.7338 102.034 60.6197 101.909 60.4998 101.791C60.2849 101.553 60.0322 101.355 59.7524 101.204C59.5933 101.126 59.4384 101.04 59.2884 100.944C59.626 101.209 59.4405 101 59.2018 100.922C58.9114 100.827 58.6141 100.757 58.3127 100.711C58.4173 100.727 58.7701 100.728 58.3489 100.732C58.153 100.732 57.9571 100.716 57.7602 100.721C57.6271 100.721 57.4949 100.736 57.3618 100.741C56.7694 100.761 57.7479 100.617 57.1716 100.769C56.8407 100.857 56.5174 100.936 56.1931 101.05C56.6058 100.904 55.847 101.245 55.731 101.312C55.6359 101.365 55.2821 101.642 55.6121 101.368C55.479 101.479 55.3611 101.605 55.2365 101.725C55.1566 101.802 54.897 102.165 55.13 101.823C55.0091 102.005 54.8989 102.194 54.8 102.389C54.6483 102.655 54.4472 102.888 54.2081 103.074C53.9689 103.26 53.6965 103.396 53.4063 103.473C53.1161 103.551 52.8138 103.57 52.5167 103.527C52.2196 103.485 51.9335 103.383 51.6748 103.227C51.416 103.071 51.1897 102.865 51.0087 102.619C50.8277 102.373 50.6955 102.093 50.6198 101.795C50.5441 101.497 50.5263 101.186 50.5674 100.881C50.6085 100.576 50.7077 100.282 50.8594 100.016C52.6138 96.6429 56.9567 95.2519 60.4181 96.3909C64.6402 97.7819 66.7341 102.313 66.9795 106.582C67.2277 110.89 65.2183 116.125 61.3119 118.191C59.5092 119.073 57.4531 119.24 55.5376 118.661C53.622 118.082 51.9817 116.798 50.9307 115.053C49.6812 112.853 49.0205 110.351 49.0155 107.803C48.8899 105.08 49.53 102.376 50.8594 100.016C52.3438 97.4129 56.2901 99.7709 54.8 102.384L54.7972 102.388Z" fill="#211715"/>
<path d="M274.942 226.629C270.312 253.753 265.423 282.027 259.189 317.828C259.04 318.691 258.611 319.481 257.968 320.074C257.325 320.668 256.504 321.034 255.633 321.114C234.125 323.029 161.388 326.181 136.097 326.998C135.507 327.017 134.92 326.904 134.379 326.668C133.838 326.432 133.357 326.078 132.97 325.632C132.584 325.186 132.301 324.659 132.144 324.09C131.986 323.521 131.958 322.924 132.06 322.342C138.285 286.689 143.232 258.066 147.926 230.565C148.149 229.253 148.819 228.059 149.822 227.185C150.825 226.311 152.099 225.812 153.429 225.771C174.172 225.143 250.832 222.649 270.913 222.002C271.5 221.983 272.084 222.094 272.623 222.328C273.161 222.563 273.641 222.914 274.027 223.357C274.413 223.8 274.695 224.324 274.854 224.89C275.012 225.456 275.042 226.05 274.942 226.629Z" fill="white"/>
<path d="M276.884 228.45C273.739 246.663 270.569 264.874 267.377 283.081C265.537 293.584 263.692 304.085 261.844 314.585C261.404 317.078 261.292 319.794 259.259 321.605C257.818 322.889 256.1 323.138 254.256 323.291C252.129 323.469 250.002 323.623 247.874 323.765C234.952 324.654 222.001 325.299 209.059 325.932C194.066 326.664 179.071 327.334 164.074 327.943C157.836 328.195 151.597 328.439 145.357 328.673C142.878 328.763 140.399 328.849 137.919 328.933C136.283 329.137 134.621 328.871 133.133 328.165C132.179 327.613 131.387 326.823 130.837 325.874C130.287 324.925 129.999 323.849 130 322.755C130.105 321.402 130.316 320.058 130.634 318.738L131.4 314.39C131.886 311.634 132.371 308.877 132.856 306.119C133.761 300.982 134.664 295.844 135.566 290.706C137.263 281.038 138.955 271.368 140.64 261.697C142.217 252.645 143.788 243.592 145.352 234.538C145.713 232.449 145.86 230.219 147.048 228.393C147.643 227.472 148.424 226.683 149.342 226.076C150.26 225.468 151.295 225.054 152.383 224.861C154.498 224.626 156.626 224.528 158.754 224.569C170.648 224.203 182.541 223.829 194.434 223.447C208.875 222.987 223.315 222.527 237.755 222.064C248.396 221.723 259.037 221.383 269.678 221.042C271.265 220.871 272.865 221.222 274.231 222.042C275.178 222.669 275.933 223.542 276.415 224.564C276.897 225.587 277.087 226.72 276.964 227.842C276.945 228.439 276.697 229.006 276.27 229.429C275.843 229.851 275.27 230.096 274.666 230.115C274.058 230.111 273.476 229.87 273.046 229.445C272.616 229.019 272.372 228.443 272.369 227.842C272.553 226.421 271.881 225.535 270.405 225.569C269.584 225.586 268.764 225.622 267.943 225.647L261.71 225.847L245.215 226.376C231.507 226.814 217.798 227.252 204.088 227.689C191.364 228.095 178.64 228.497 165.916 228.897L159.017 229.111C157.191 229.167 155.294 229.082 153.477 229.283C152.798 229.354 152.156 229.621 151.63 230.051C151.104 230.481 150.718 231.055 150.52 231.701C150.002 233.808 149.62 235.945 149.378 238.1C148.64 242.368 147.9 246.635 147.159 250.903C143.867 269.864 140.55 288.821 137.209 307.773C136.75 310.382 136.29 312.992 135.829 315.603C135.601 316.898 135.372 318.192 135.143 319.486C134.952 320.564 134.41 321.977 134.602 323.066C134.822 324.321 135.959 324.453 137.046 324.417C138.114 324.382 139.181 324.347 140.248 324.31C145.756 324.12 151.263 323.914 156.769 323.692C170.971 323.13 185.17 322.516 199.367 321.85C212.933 321.214 226.499 320.549 240.056 319.724C244.74 319.44 249.426 319.142 254.103 318.755C255.061 318.675 256.1 318.706 256.592 317.708C256.98 316.529 257.215 315.306 257.293 314.068L258.017 309.957C258.932 304.758 259.846 299.559 260.758 294.361C263.966 276.086 267.156 257.806 270.331 239.523C271.041 235.429 271.749 231.335 272.456 227.24C272.622 226.662 273.011 226.171 273.54 225.874C274.069 225.576 274.694 225.497 275.282 225.652C275.861 225.825 276.351 226.212 276.65 226.733C276.948 227.254 277.032 227.869 276.884 228.45Z" fill="#211715"/>
<path d="M81.4237 293.336C96.5983 302.156 112 310.647 127.459 319.009C129.913 320.336 132.367 321.674 134.852 322.941C137.472 324.274 135.141 328.054 132.522 326.719C126.941 323.876 121.474 320.813 115.99 317.805C107.685 313.247 99.4065 308.645 91.1549 304.002C87.1212 301.727 83.1006 299.432 79.0932 297.115C76.5634 295.644 78.8805 291.858 81.4237 293.336Z" fill="#211715"/>
<path d="M108.981 108.616C109.235 109.367 109.455 110.136 109.638 110.917C109.959 112.218 110.345 113.855 109.433 114.956C109.232 115.187 109.005 115.382 108.76 115.539C108.51 115.702 108.244 115.825 107.967 115.904C107.594 115.981 107.215 116.012 106.836 115.996C106.349 115.996 105.882 115.765 105.538 115.353C105.193 114.942 105 114.384 105 113.802C105.001 113.22 105.194 112.662 105.535 112.248C105.886 111.846 106.35 111.618 106.836 111.608C107.035 111.621 107.234 111.62 107.433 111.603L106.945 111.682C107.046 111.661 107.144 111.628 107.239 111.583L106.8 111.804C106.94 111.729 107.073 111.635 107.195 111.523L106.823 111.866C106.828 111.861 106.832 111.855 106.836 111.849L106.549 112.293C106.555 112.283 106.561 112.271 106.565 112.259L106.38 112.782C106.388 112.756 106.394 112.728 106.397 112.699L106.331 113.282C106.339 113.167 106.335 113.052 106.32 112.938L106.385 113.521C106.286 112.821 106.137 112.133 105.939 111.463C105.786 110.897 105.633 110.326 105.44 109.778C105.375 109.495 105.358 109.2 105.389 108.91C105.421 108.62 105.501 108.34 105.625 108.087C105.747 107.838 105.908 107.621 106.1 107.446C106.292 107.272 106.511 107.145 106.745 107.072C106.978 106.999 107.221 106.981 107.46 107.02C107.699 107.06 107.929 107.155 108.137 107.3L108.509 107.643C108.733 107.912 108.896 108.245 108.981 108.611V108.616Z" fill="#211715"/>
<path d="M126.734 97.23C127.369 99.42 127.085 104.492 123.453 104.999C118.639 105.069 118.261 98.952 119.823 96.039C121.102 93.654 124.982 92.59 126.734 97.23Z" fill="#211715"/>
<path d="M85.2158 97.392C84.596 99.605 85.1309 104.655 89.2271 105C94.6292 104.853 94.7921 98.729 92.9156 95.892C91.3793 93.568 86.9766 92.684 85.2158 97.392Z" fill="#211715"/>
<path d="M100.745 133.355C99.3525 131.962 98.1833 130.322 97.2856 128.504C96.2726 126.423 94.9465 123.049 97.3718 121.472C98.5676 120.694 100.217 121.083 101.535 121.21C102.944 121.347 104.352 121.508 105.76 121.683C107.337 121.882 108.912 122.096 110.481 122.355C111.01 122.516 111.458 122.9 111.729 123.424C112 123.947 112.071 124.567 111.927 125.147C111.767 125.718 111.414 126.2 110.941 126.494C110.468 126.789 109.91 126.874 109.381 126.732C109.094 126.685 108.806 126.64 108.519 126.596C107.915 126.502 108.768 126.63 108.373 126.574L107.929 126.511C107.179 126.406 106.428 126.307 105.675 126.213C104.148 126.024 102.617 125.848 101.085 125.707C100.477 125.651 99.8678 125.599 99.2582 125.565C99.1528 125.573 99.0469 125.568 98.9427 125.548C99.2285 125.536 99.5002 125.409 99.7057 125.191C99.8469 125.034 99.9544 124.844 100.02 124.635C100.086 124.427 100.109 124.205 100.087 123.986C100.165 124.206 100.222 124.435 100.259 124.668C100.303 124.82 100.35 124.97 100.399 125.118C100.493 125.373 100.504 125.414 100.434 125.241C100.848 126.272 101.362 127.25 101.967 128.16C102.094 128.357 102.22 128.557 102.355 128.748C102.151 128.464 102.539 128.966 102.587 129.021C102.932 129.416 103.313 129.771 103.678 130.144C104.061 130.572 104.276 131.149 104.276 131.749C104.276 132.35 104.061 132.926 103.678 133.354C103.284 133.769 102.76 134 102.214 134C101.669 134 101.144 133.769 100.751 133.354L100.745 133.355Z" fill="#211715"/>
</svg>
